<?xml version="1.0" encoding="UTF-8"?>
<!DOCTYPE svg PUBLIC "-//W3C//DTD SVG 1.1//EN" "http://www.w3.org/Graphics/SVG/1.1/DTD/svg11.dtd">
<!-- Creator: CorelDRAW 2017 -->
<svg xmlns="http://www.w3.org/2000/svg" xml:space="preserve" width="215.9mm" height="279.4mm" version="1.1" style="shape-rendering:geometricPrecision; text-rendering:geometricPrecision; image-rendering:optimizeQuality; fill-rule:evenodd; clip-rule:evenodd"
viewBox="0 0 21590 27940"
 xmlns:xlink="http://www.w3.org/1999/xlink">
 <defs>
  <style type="text/css">
   <![CDATA[
    .fil4 {fill:#FEFEFE}
    .fil3 {fill:#E51A4B}
    .fil1 {fill:#B22219}
    .fil5 {fill:#FEFEFE;fill-rule:nonzero}
    .fil2 {fill:#B22219;fill-rule:nonzero}
    .fil0 {fill:url(#id0)}
   ]]>
  </style>
  <linearGradient id="id0" gradientUnits="userSpaceOnUse" x1="8916.98" y1="12073.53" x2="12713.23" y2="15848.5">
   <stop offset="0" style="stop-opacity:1; stop-color:#E51A4B"/>
   <stop offset="1" style="stop-opacity:1; stop-color:#B22219"/>
  </linearGradient>
 </defs>
 <g id="Capa_x0020_1">
  <metadata id="CorelCorpID_0Corel-Layer"/>
  <polygon class="fil0" points="8876.77,12051.77 12713.23,12051.77 12713.23,15888.23 8876.77,15888.23 "/>
  <g id="_1598588369280">
   <path class="fil1" d="M9956.4 13418.51c2.58,-31.92 22.28,-58.86 49.23,-65.83 -21.19,24.54 -11.97,24.29 -19.92,38.09 -2.68,4.63 -23.56,24.54 -29.31,27.74zm299.63 -81.01c5.81,-6.89 12.91,-10.1 21,-16.37 6.39,-4.95 13.52,-11.71 21.09,-14.95l2.68 28.27 -44.77 3.05zm-437.51 120.86c3.05,-32.94 2.03,-38.35 15.72,-76.8 9.29,-26.12 26.12,-51.11 43.48,-60 -24.43,31.51 -50.81,92.35 -30.18,126.48 2.6,-44.27 7.33,-83.82 46.04,-95.06 -12.72,21.97 -27.25,42.2 -22.24,76.48 5.46,-7.83 2.02,-2.59 4.11,-12.21 5.36,-24.59 20.85,-52.11 46.84,-58.98 -19.5,25.77 -25.41,28.33 -16.12,70.82 10.09,-18.04 1.85,-27.57 37.87,-51.83 -0.8,18.91 3.73,33.08 3.69,46.72 -11.11,7.34 -9.69,5.83 -20.86,10.68 -8.38,3.64 -10.36,6.51 -18.95,10.13 -13.24,5.57 -30.1,8.71 -42.08,18.35 -38.37,30.89 -46.55,141.89 -60.11,-12.73 -3.13,-35.67 -2.7,-59.61 15,-83.34 -2.78,15.15 -9.54,28.68 -10.07,48.92 -0.27,10.38 1.2,44.11 5.23,52.15l2.63 -9.78zm572.01 62.22l0 -4.18c-3.44,-6.12 -3.96,-10.24 -5.26,-18.76 -2.52,-16.4 -2.1,-8.77 -6.09,-20.14 -7.38,-20.97 9.21,-19.58 3.02,-39.36 -11.98,-38.32 -9.05,-51.73 -12.11,-90.6 -16.38,-15.93 -10.79,-18.03 -39.46,-16.07 5.8,-34.81 7.12,-43.5 -19.18,-61.29 -17.23,-1.33 -34.13,9.1 -52.85,11.04 -7.95,-32.48 -38.48,-26.39 -45.71,-61.62 -4.16,-20.25 -17.42,-81.62 -6.88,-98.15 17.36,-1.5 5.46,9.29 28.69,2.29 9.7,-2.93 20.93,-3.83 31.94,-4.74l9.99 12.57c9.04,-3.76 4.14,-4.2 12.27,-6.45 6.41,-1.78 13.12,-0.75 20.43,-1.25 2.15,-18.33 9.63,-31.32 10.44,-44.15 -17.17,-7.33 -23.58,-19.27 -40.27,-29.93 -14.53,-9.28 -33.08,-21.18 -39.93,-34.38 12.47,-6.65 13.37,-7.98 14.29,-25.33 -10.19,6.13 -14.45,10.77 -26.79,14.97 14.7,-36.04 57.53,-101.22 65.21,-133.71l-13.98 16.27c-12.02,18.6 -55.99,82.69 -68.61,94.63 -6.12,5.79 -10.5,4.21 -19.08,9.98 -6.12,-9.59 -9.92,-8.79 -22.05,-13.42 -13.57,-5.18 -13.2,-7.36 -20.54,-15.5 -13.22,16.45 -2.68,31.4 11,40.85 -25.01,7.67 -50.48,-15.64 -70.31,24.99 12.22,-4.59 16.87,-8.78 35.47,-7.32 -25.42,11.1 -26.78,4 -53.16,27.2 -9.23,8.11 -29.91,24.22 -42.5,12.01 -10.82,-10.5 7.31,-5.3 -7.42,-8.96 -12.56,30.57 18.81,26.08 40.49,21.04 -6.15,5.38 -12.87,8.69 -19.05,13.36 -8.25,6.24 -12.33,7.86 -17.05,17.55 15.97,-7.23 27.59,-16.35 48.82,-16.66 -18.97,11.46 -42.79,21.96 -61.36,35.47 -14.73,10.72 -39.84,33.2 -45.18,56.08 11.39,-7.54 18.42,-22.99 36.39,-35.7 13.85,-9.79 34.36,-16.14 54.14,-16.3 -23.75,13.09 -43.17,27.35 -50.61,54.12 20.32,-16.09 14.27,-23.21 48.86,-30.51 -17.13,19.69 -45.49,31.92 -54.13,68.28l-19.01 -3.71c0.5,0.45 1.27,0.54 1.55,1.62 0.27,1.06 1.14,1.35 1.52,1.73l13.12 11.07c6.91,3.32 17.17,0.93 24.26,-0.19 -8.79,10.89 -15.97,17.78 -9.29,38.43 11.54,-25.94 4.37,-28.5 38.07,-35.38 -0.81,19.92 -22.48,37.47 -19.99,77.55 -23.5,-16.3 -125.43,-130.69 -65.92,-178.63 -10.25,25.72 -15.73,55.31 1.34,78.6 -9.4,-31.98 -1.29,-41.9 7.49,-69.33 33.34,-104.08 -127.01,-47.72 -164.74,-29.84 17.29,-20.42 50.01,-29.86 83.42,-36.08 -38.51,-5.04 -108.12,19.89 -151.15,23.24 -42.39,3.31 -83.84,-6.63 -114.03,-35.09l-15.26 -12.1c6.04,22.8 30.74,47.95 45.59,58.07 22.73,15.49 52.03,20.92 84.29,20.48 -65.83,20.41 -216.43,-22 -275.73,-76.9 -9.59,-8.87 -17.23,-20.57 -28.3,-28.25 15.65,55.07 99.01,89 151.83,105.32 21.1,6.53 50.21,10.8 69.55,17.42 -48.27,-2.42 -99.97,-19.97 -141.7,-40.65 -16.93,-8.4 -27.26,-16.68 -42.33,-23.97 3.65,10.98 -1.95,1.19 5.89,10.71 6.83,8.3 14.37,11.89 23.12,18.94 31.4,25.3 83.81,38.93 124.5,44.26 -23.53,2.9 -44.63,-5.66 -66.24,-7.55l42.61 15.51c70.18,18.86 103.79,4.7 167.35,-0.5 -85.57,37.2 -241.06,18.22 -327.92,-10.8 -48.77,-16.3 -91.98,-34.34 -131.15,-58.57 -21.37,-13.22 -36.25,-23.77 -55.12,-39.64 -15.02,-12.64 -36.72,-38.37 -50.91,-47.69 13.22,37.61 46.35,56.06 74.17,77.31 91.7,70.03 221.33,113.89 343.57,116.56 -57.35,13.36 -166.42,-16.79 -214.69,-37.6 -30.55,-13.17 -56.33,-26.25 -84.27,-42.15 -13.83,-7.87 -25.89,-16.24 -38.8,-24.41 -12.11,-7.66 -28.19,-21.8 -39.76,-27.37 14.69,38.33 109.56,87.14 147.47,106.89 -17.79,-2.62 -34.53,-11.77 -49.56,-19.12 -18.17,-8.87 -30.47,-20.23 -47.55,-26.98 8.63,21.26 46.86,41.16 65.69,51.42 29.38,16.01 52.16,20.98 83.56,27.99 -32,7.39 -50.36,-9.69 -74.84,-15.12l9.78 8.4c4.85,3.1 5.46,2.81 10.32,5.4 64.39,34.18 123.94,38.26 197.92,32.44 56.25,-4.43 112.6,-14.79 163.85,-36.97 16.04,-6.94 32.01,-16.2 47.17,-22.11 -46.62,34.87 -171.11,86.12 -236.78,100.76 -45.99,10.26 -61.39,6.51 -103.26,-5.21l2.66 4.92c4.32,6.8 8.13,11.99 15.66,15.52 7.7,3.61 22,5.18 31.21,5.55 41.19,1.68 82.76,-8.82 120.85,-21.47 18.88,-6.28 37.17,-15.4 53.21,-20.59 -54.06,31.64 -107.01,57.74 -187.31,52.79l16.96 17.1c23.22,16.31 44.68,25.1 74.22,13.14 30.72,-12.44 56.45,-31.59 85.5,-47.19 -15.04,20.98 -49.22,37.94 -73.41,50.71 -8.31,4.38 -5.94,2.1 -11.83,8.27 68.02,-6.77 178.93,-117.6 194.04,-126.64 -22.38,34.55 -42.05,45.9 -59.75,93.87 -10.38,28.12 -22.35,52.43 -48.9,63.75 -9.37,4 -22.43,4.38 -29.81,11.98 16.22,5.62 33.09,14.31 54.89,12.48l29.96 -43.13c5.22,-8.89 21.64,-41.41 22.6,-48.14 -0.16,20.7 -20.9,65.32 -28.74,84.72 40.94,-23.77 39.21,-97.21 75.19,-125.88 -19.28,36.48 -24.1,44.02 -28.98,93.54 -1.58,16.04 -6.12,34.36 -14.63,45.44 -16.26,21.16 -24.91,13.96 -36.59,25.14 19.73,1.22 30.97,7.93 44.91,-3.77 31.29,-26.22 17.61,-80.81 47.79,-114.27 -15.64,40 -25.33,59.59 -21.66,107.17 1.76,22.79 2.29,40.31 6.55,62.67 3.52,18.43 9.66,37.71 12.59,54.72 -102.09,0.97 -60.17,49.74 -80.16,126.48 -8.38,32.17 -22.37,44.32 -37.63,65.07 -36.89,50.19 -20.72,24.07 -45.49,46.46 -8.24,7.44 -2.74,-0.27 -7.18,10.01 14.3,-6.17 23,-14.25 39.1,-19.34 -7.43,16.77 -17.37,30.98 -28.17,44.88 -7.42,9.54 -7.11,9.93 -17.6,19.23 -5.84,5.18 -15.05,14.12 -20.64,19.57 23.97,-5.64 37.06,-26.13 50.47,-40.49 -7.44,19.54 -19.99,35.22 -35.97,46.39 -7.07,4.95 -12.81,7.21 -17.82,13.67 46.36,-12.19 58.32,-49.94 85.06,-81.57 -2.74,22.68 -14.92,41.19 -30.01,55.11l-16.04 15.15c39.26,-11.9 65.92,-61.33 79.86,-97.71 -1.76,27.04 -15.83,49.03 -32.65,66.37 -8.32,8.58 -12.42,7.66 -15.59,22.06l7.31 -6.54c3.22,-2.89 2.03,-1.97 5.82,-5.03 4.03,-3.24 7,-5.46 11.4,-9.38 25.95,-23.02 35.72,-52.14 47.34,-85.98 1.58,30.05 -9.15,37.66 -12.74,58.78 2.79,-2.43 1.93,-1.42 4.68,-4.7 22.75,-27.11 31.25,-77.53 33.61,-111.09 4.28,33.14 -2.5,51.58 -9.69,80.68 9.19,-5.91 8.86,-9.02 12.52,-20.59 3.1,-9.79 4.72,-14.87 6.08,-25.42 5.23,-40.65 -11.63,-73.25 -12.75,-112.45 -0.75,-26.38 6.3,-29.47 26.4,-36.48 -5.92,28.24 -11.91,61.72 2.02,89.77 14.91,30.04 24.9,41.9 4.01,76.62 -5.51,9.16 -8.07,11.37 -15.53,18.54l-19.91 17.63c-0.38,19.43 13.12,45.64 16.19,68.69 3.12,23.43 3.94,63.29 6.94,80.3 -3.38,3.44 -5.82,1.38 -7.15,4.35 -3.31,7.42 8.09,-2.07 -3.76,6.47 18.45,4.71 -1.89,2.45 17.2,5.13 -6.09,42.07 24.11,38.66 55.74,35.58 -18.36,-37.62 -28.23,-26.14 -37.67,-67.87 -5.17,-22.89 -11.71,-71.39 -8.95,-95.47 1.92,-16.63 12.8,-20.44 23.28,-28.6 12.41,-9.67 17.29,-13.54 26.8,-26.25 14.36,-19.2 31.35,-37.09 35.07,-68.93 53.68,33.67 -33.81,79.66 -29.2,105.05 5.97,11.76 18.54,17.97 27.55,26.29 18.8,17.35 36.03,38.97 50.85,59.68 12.56,17.55 11.33,16.6 9.5,41.69l9.02 -2.7c3.39,0.39 5.57,2.07 8.89,4.2 -2.56,10.32 -5.36,14.38 -5.19,26.36 17.53,13.09 34.57,17.95 59.95,11.89 0.9,-21.32 -98.82,-114.79 -99.17,-154.23 -0.22,-25.2 27.86,-40.3 43.05,-52.04 9.28,-7.17 9.48,-8.2 17.75,-16.6 20.51,-20.83 21.26,-36.32 36.48,-58.68 5.89,-8.66 11.75,-9.62 14.21,-20.58 3.87,-17.21 -7.31,-36.58 -11.38,-51.77 -12.67,-47.32 46.54,-39.02 98.9,-91.93 18.62,-18.82 41.26,-49.66 56.91,-72.29 36.93,-53.39 21.88,-24.1 48.6,-35.23 8.82,-3.67 14.4,-8.09 22.83,-12.93 -1.07,17.85 -0.91,27.91 3.38,43.48l60.44 -52.53c4.72,-7.95 3.35,-20.05 9.79,-29.25 25.63,0.16 29.92,39.42 31.85,65.5 -9.84,7.4 -4.18,4.56 -5.6,7.47 -1.06,2.19 -3.86,1.81 -7,7.45 9.45,8.4 23.88,11.97 9.2,23.79 -3.2,2.58 -6.23,3.78 -8.74,7.56 -17.5,26.35 18.9,41.23 43.56,42.42z"/>
   <path class="fil1" d="M10488.66 12925.45l-127.96 140.3c-16.6,17.65 -34.13,27.28 -42.54,50.1 68.73,58.06 112.65,190.31 84.71,314.28 -25.2,111.86 -89.93,210.54 -69.03,337.92 18.53,113 92.1,202.9 175.27,238.95 72.64,31.49 248.64,15.66 309.44,107.76 28.68,-9.56 27.6,-40.81 121.15,-68.34 48.83,-14.37 107.65,-17.85 159.17,-27.44 94.25,-17.55 163.58,-102.66 196.35,-182.01 74.48,-180.33 -51.9,-316.06 -58.48,-463.06 -3.2,-71.49 9.49,-103.61 26.25,-163.9 9.45,-20.95 19.37,-38.89 30.67,-55.01 11.77,-16.77 24.27,-28.35 34.19,-43.9l-130.08 -143.01c-12.81,-15.11 -29.64,-30.29 -43.47,-44.56 -8.33,4.1 0.53,-1.91 -9.74,6.67 -2.53,2.11 -5.33,5.15 -8.06,7.96 -39.59,40.65 -94.12,54.99 -153.4,51.63 -95.88,-5.45 -134.69,-61.69 -164.08,-70.38 -30.08,37.78 -91.99,69.34 -162.14,70.65 -35.54,0.66 -69.34,-5.79 -98.25,-19.48 -59.38,-28.12 -42.95,-44.48 -69.97,-45.13zm-119.42 191.59c14.23,-27.38 68.43,-76.12 92.66,-103.18 11.16,-12.47 19.33,-24.51 31.05,-35.27 22.58,10.08 36.94,27.51 71.1,40.09 32.67,12.04 60,15.72 96.79,14.95 78.49,-1.63 112.92,-31.38 163.01,-60.8 53.16,32.54 87.41,58.78 163.03,60.9 35.55,1 66.56,-3.58 96.5,-15.28 41.34,-16.15 53.44,-32.45 70.51,-39.92l124.09 132.83c-10.42,30.3 -33.04,43.26 -61.2,136.01 -15.82,52.09 -19.35,119.51 -10.31,175.5 21.15,130.98 146.18,290.21 23.93,458.94 -79.94,110.34 -119,92.23 -270.6,119.43 -97.09,17.43 -98.75,39.84 -135.95,60.1 -46.08,-31.16 -65.28,-47.75 -135.77,-59.96 -45.57,-7.9 -125.77,-16.16 -164.77,-30.59 -79.22,-29.33 -149.07,-124.49 -159.45,-229.76 -18.36,-186.35 189.85,-321.58 5.38,-623.99z"/>
   <path class="fil1" d="M11692.2 13418.51c-2.58,-31.92 -22.28,-58.86 -49.22,-65.83 21.19,24.54 11.96,24.29 19.92,38.09 2.67,4.63 23.56,24.54 29.3,27.74zm-299.63 -81.01c-5.81,-6.89 -12.9,-10.1 -21,-16.37 -6.39,-4.95 -13.52,-11.71 -21.08,-14.95l-2.69 28.27 44.77 3.05zm437.51 120.86c-3.05,-32.94 -2.03,-38.35 -15.71,-76.8 -9.29,-26.12 -26.13,-51.11 -43.48,-60 24.43,31.51 50.8,92.35 30.17,126.48 -2.6,-44.27 -7.32,-83.82 -46.03,-95.06 12.72,21.97 27.25,42.2 22.24,76.48 -5.47,-7.83 -2.03,-2.59 -4.12,-12.21 -5.35,-24.59 -20.85,-52.11 -46.84,-58.98 19.51,25.77 25.42,28.33 16.13,70.82 -10.1,-18.04 -1.85,-27.57 -37.88,-51.83 0.8,18.91 -3.73,33.08 -3.69,46.72 11.11,7.34 9.69,5.83 20.86,10.68 8.38,3.64 10.37,6.51 18.96,10.13 13.24,5.57 30.1,8.71 42.07,18.35 38.37,30.89 46.56,141.89 60.12,-12.73 3.12,-35.67 2.69,-59.61 -15.01,-83.34 2.79,15.15 9.55,28.68 10.07,48.92 0.27,10.38 -1.2,44.11 -5.23,52.15l-2.63 -9.78zm-572 62.22l0 -4.18c3.44,-6.12 3.95,-10.24 5.26,-18.76 2.51,-16.4 2.09,-8.77 6.09,-20.14 7.37,-20.97 -9.21,-19.58 -3.03,-39.36 11.99,-38.32 9.05,-51.73 12.12,-90.6 16.38,-15.93 10.78,-18.03 39.46,-16.07 -5.8,-34.81 -7.12,-43.5 19.18,-61.29 17.22,-1.33 34.13,9.1 52.85,11.04 7.95,-32.48 38.47,-26.39 45.71,-61.62 4.15,-20.25 17.42,-81.62 6.87,-98.15 -17.36,-1.5 -5.45,9.29 -28.68,2.29 -9.71,-2.93 -20.94,-3.83 -31.94,-4.74l-10 12.57c-9.04,-3.76 -4.14,-4.2 -12.27,-6.45 -6.4,-1.78 -13.12,-0.75 -20.43,-1.25 -2.14,-18.33 -9.63,-31.32 -10.44,-44.15 17.17,-7.33 23.59,-19.27 40.27,-29.93 14.54,-9.28 33.09,-21.18 39.94,-34.38 -12.48,-6.65 -13.37,-7.98 -14.29,-25.33 10.19,6.13 14.44,10.77 26.79,14.97 -14.71,-36.04 -57.53,-101.22 -65.21,-133.71l13.97 16.27c12.03,18.6 55.99,82.69 68.61,94.63 6.13,5.79 10.51,4.21 19.08,9.98 6.13,-9.59 9.92,-8.79 22.05,-13.42 13.57,-5.18 13.21,-7.36 20.54,-15.5 13.22,16.45 2.69,31.4 -11,40.85 25.02,7.67 50.49,-15.64 70.32,24.99 -12.22,-4.59 -16.88,-8.78 -35.47,-7.32 25.41,11.1 26.78,4 53.16,27.2 9.23,8.11 29.9,24.22 42.49,12.01 10.83,-10.5 -7.3,-5.3 7.42,-8.96 12.56,30.57 -18.81,26.08 -40.49,21.04 6.16,5.38 12.88,8.69 19.06,13.36 8.24,6.24 12.33,7.86 17.04,17.55 -15.97,-7.23 -27.59,-16.35 -48.82,-16.66 18.98,11.46 42.79,21.96 61.36,35.47 14.74,10.72 39.84,33.2 45.19,56.08 -11.39,-7.54 -18.42,-22.99 -36.39,-35.7 -13.86,-9.79 -34.37,-16.14 -54.14,-16.3 23.75,13.09 43.16,27.35 50.6,54.12 -20.31,-16.09 -14.27,-23.21 -48.85,-30.51 17.12,19.69 45.48,31.92 54.13,68.28l19.01 -3.71c-0.51,0.45 -1.28,0.54 -1.56,1.62 -0.27,1.06 -1.14,1.35 -1.52,1.73l-13.11 11.07c-6.92,3.32 -17.17,0.93 -24.27,-0.19 8.79,10.89 15.97,17.78 9.29,38.43 -11.54,-25.94 -4.36,-28.5 -38.07,-35.38 0.81,19.92 22.48,37.47 19.99,77.55 23.5,-16.3 125.44,-130.69 65.92,-178.63 10.25,25.72 15.73,55.31 -1.34,78.6 9.4,-31.98 1.3,-41.9 -7.49,-69.33 -33.34,-104.08 127.01,-47.72 164.74,-29.84 -17.29,-20.42 -50,-29.86 -83.41,-36.08 38.51,-5.04 108.12,19.89 151.15,23.24 42.38,3.31 83.84,-6.63 114.03,-35.09l15.25 -12.1c-6.03,22.8 -30.73,47.95 -45.58,58.07 -22.73,15.49 -52.03,20.92 -84.3,20.48 65.84,20.41 216.43,-22 275.74,-76.9 9.59,-8.87 17.23,-20.57 28.29,-28.25 -15.64,55.07 -99,89 -151.82,105.32 -21.11,6.53 -50.22,10.8 -69.56,17.42 48.28,-2.42 99.98,-19.97 141.7,-40.65 16.94,-8.4 27.27,-16.68 42.33,-23.97 -3.65,10.98 1.95,1.19 -5.88,10.71 -6.84,8.3 -14.38,11.89 -23.12,18.94 -31.4,25.3 -83.82,38.93 -124.5,44.26 23.53,2.9 44.63,-5.66 66.23,-7.55l-42.6 15.51c-70.19,18.86 -103.8,4.7 -167.36,-0.5 85.58,37.2 241.07,18.22 327.92,-10.8 48.78,-16.3 91.99,-34.34 131.16,-58.57 21.37,-13.22 36.25,-23.77 55.11,-39.64 15.03,-12.64 36.72,-38.37 50.92,-47.69 -13.22,37.61 -46.36,56.06 -74.18,77.31 -91.7,70.03 -221.33,113.89 -343.56,116.56 57.34,13.36 166.41,-16.79 214.68,-37.6 30.55,-13.17 56.33,-26.25 84.28,-42.15 13.82,-7.87 25.89,-16.24 38.8,-24.41 12.1,-7.66 28.18,-21.8 39.75,-27.37 -14.68,38.33 -109.56,87.14 -147.47,106.89 17.79,-2.62 34.54,-11.77 49.57,-19.12 18.16,-8.87 30.46,-20.23 47.54,-26.98 -8.62,21.26 -46.85,41.16 -65.69,51.42 -29.38,16.01 -52.15,20.98 -83.55,27.99 32,7.39 50.35,-9.69 74.83,-15.12l-9.77 8.4c-4.85,3.1 -5.46,2.81 -10.33,5.4 -64.39,34.18 -123.93,38.26 -197.92,32.44 -56.24,-4.43 -112.6,-14.79 -163.85,-36.97 -16.03,-6.94 -32.01,-16.2 -47.16,-22.11 46.62,34.87 171.11,86.12 236.77,100.76 46,10.26 61.39,6.51 103.27,-5.21l-2.66 4.92c-4.33,6.8 -8.14,11.99 -15.67,15.52 -7.69,3.61 -21.99,5.18 -31.2,5.55 -41.2,1.68 -82.77,-8.82 -120.85,-21.47 -18.89,-6.28 -37.17,-15.4 -53.21,-20.59 54.05,31.64 107.01,57.74 187.31,52.79l-16.97 17.1c-23.21,16.31 -44.68,25.1 -74.21,13.14 -30.72,-12.44 -56.46,-31.59 -85.5,-47.19 15.04,20.98 49.21,37.94 73.41,50.71 8.3,4.38 5.93,2.1 11.83,8.27 -68.02,-6.77 -178.93,-117.6 -194.05,-126.64 22.38,34.55 42.05,45.9 59.76,93.87 10.37,28.12 22.35,52.43 48.9,63.75 9.37,4 22.43,4.38 29.81,11.98 -16.23,5.62 -33.1,14.31 -54.9,12.48l-29.96 -43.13c-5.22,-8.89 -21.64,-41.41 -22.6,-48.14 0.16,20.7 20.9,65.32 28.74,84.72 -40.93,-23.77 -39.21,-97.21 -75.19,-125.88 19.29,36.48 24.1,44.02 28.98,93.54 1.58,16.04 6.13,34.36 14.64,45.44 16.25,21.16 24.91,13.96 36.58,25.14 -19.72,1.22 -30.96,7.93 -44.91,-3.77 -31.28,-26.22 -17.61,-80.81 -47.78,-114.27 15.63,40 25.32,59.59 21.65,107.17 -1.76,22.79 -2.29,40.31 -6.55,62.67 -3.52,18.43 -9.66,37.71 -12.58,54.72 102.09,0.97 60.17,49.74 80.15,126.48 8.38,32.17 22.38,44.32 37.63,65.07 36.89,50.19 20.72,24.07 45.49,46.46 8.24,7.44 2.74,-0.27 7.19,10.01 -14.3,-6.17 -23.01,-14.25 -39.1,-19.34 7.42,16.77 17.36,30.98 28.17,44.88 7.41,9.54 7.1,9.93 17.59,19.23 5.84,5.18 15.06,14.12 20.65,19.57 -23.98,-5.64 -37.07,-26.13 -50.48,-40.49 7.44,19.54 19.99,35.22 35.97,46.39 7.08,4.95 12.82,7.21 17.82,13.67 -46.35,-12.19 -58.32,-49.94 -85.05,-81.57 2.73,22.68 14.91,41.19 30,55.11l16.04 15.15c-39.25,-11.9 -65.91,-61.33 -79.86,-97.71 1.77,27.04 15.83,49.03 32.65,66.37 8.32,8.58 12.42,7.66 15.59,22.06l-7.31 -6.54c-3.21,-2.89 -2.02,-1.97 -5.82,-5.03 -4.03,-3.24 -6.99,-5.46 -11.4,-9.38 -25.95,-23.02 -35.71,-52.14 -47.34,-85.98 -1.57,30.05 9.16,37.66 12.74,58.78 -2.79,-2.43 -1.92,-1.42 -4.67,-4.7 -22.76,-27.11 -31.26,-77.53 -33.62,-111.09 -4.28,33.14 2.51,51.58 9.69,80.68 -9.19,-5.91 -8.86,-9.02 -12.52,-20.59 -3.09,-9.79 -4.72,-14.87 -6.08,-25.42 -5.23,-40.65 11.63,-73.25 12.75,-112.45 0.76,-26.38 -6.3,-29.47 -26.39,-36.48 5.92,28.24 11.9,61.72 -2.02,89.77 -14.92,30.04 -24.9,41.9 -4.02,76.62 5.51,9.16 8.07,11.37 15.54,18.54l19.9 17.63c0.39,19.43 -13.12,45.64 -16.19,68.69 -3.12,23.43 -3.94,63.29 -6.94,80.3 3.38,3.44 5.82,1.38 7.15,4.35 3.32,7.42 -8.09,-2.07 3.77,6.47 -18.46,4.71 1.88,2.45 -17.21,5.13 6.1,42.07 -24.11,38.66 -55.74,35.58 18.36,-37.62 28.24,-26.14 37.67,-67.87 5.18,-22.89 11.72,-71.39 8.95,-95.47 -1.91,-16.63 -12.79,-20.44 -23.28,-28.6 -12.4,-9.67 -17.28,-13.54 -26.79,-26.25 -14.36,-19.2 -31.36,-37.09 -35.07,-68.93 -53.68,33.67 33.8,79.66 29.2,105.05 -5.98,11.76 -18.54,17.97 -27.56,26.29 -18.79,17.35 -36.02,38.97 -50.85,59.68 -12.56,17.55 -11.33,16.6 -9.5,41.69l-9.01 -2.7c-3.39,0.39 -5.58,2.07 -8.9,4.2 2.56,10.32 5.36,14.38 5.19,26.36 -17.53,13.09 -34.57,17.95 -59.95,11.89 -0.89,-21.32 98.82,-114.79 99.17,-154.23 0.23,-25.2 -27.85,-40.3 -43.04,-52.04 -9.29,-7.17 -9.48,-8.2 -17.75,-16.6 -20.52,-20.83 -21.27,-36.32 -36.49,-58.68 -5.89,-8.66 -11.74,-9.62 -14.21,-20.58 -3.87,-17.21 7.31,-36.58 11.38,-51.77 12.68,-47.32 -46.54,-39.02 -98.89,-91.93 -18.63,-18.82 -41.27,-49.66 -56.92,-72.29 -36.92,-53.39 -21.88,-24.1 -48.6,-35.23 -8.81,-3.67 -14.4,-8.09 -22.82,-12.93 1.07,17.85 0.9,27.91 -3.39,43.48l-60.43 -52.53c-4.73,-7.95 -3.35,-20.05 -9.8,-29.25 -25.63,0.16 -29.92,39.42 -31.85,65.5 9.85,7.4 4.19,4.56 5.6,7.47 1.07,2.19 3.86,1.81 7,7.45 -9.45,8.4 -23.88,11.97 -9.2,23.79 3.2,2.58 6.24,3.78 8.75,7.56 17.49,26.35 -18.91,41.23 -43.56,42.42z"/>
   <path class="fil1" d="M11208.65 12534.66c15.81,0 26.1,1.25 39.01,12.11l8 8.8c9.58,12.11 13.29,28.65 15.51,43.31 3.48,22.83 -1.42,50.41 -7.83,72.44 -7.62,26.23 -20.83,51.25 -36.48,73.45 -3.14,4.46 -5.96,7.91 -9.41,12.3 -9.85,12.55 -26.66,28.81 -39.21,37.11 -25.07,16.6 -57.3,31.03 -86.47,13.59 -30.41,-18.18 -34.16,-66.03 -28.33,-101.12 3.12,-18.78 9.42,-40.61 17.33,-57.6 0.9,-1.93 1.73,-3.39 2.59,-5.12 0.9,-1.84 1.36,-3.34 2.31,-5.39 1.6,-3.48 3.71,-6.09 5.38,-9.32l5.6 -9.81c2.09,-2.67 2.5,-0.75 6.52,-3.98 4.26,-3.41 5.76,-7.43 8.3,-11.31 6.68,-10.21 23,-26.03 34.88,-26.03 7.77,0 12.53,-0.18 19.79,6.81 6.19,5.94 6.81,9.17 6.81,17.7 0,17.82 -12.61,27.97 -27.4,33.52 -3.31,1.25 -5.74,2.18 -9.27,3.33 -22.16,7.26 -35.38,18.06 -49.66,35.76 -2.04,2.53 -3.76,4.59 -5.35,7.26 -2.71,4.53 -7.03,11.2 -7.03,18.18 0,8.98 8.99,15.23 17.69,13.54 12.46,-2.42 12.9,-10.49 16.64,-16.32 4.72,-7.34 17.45,-20.08 25.57,-23.44l23.88 -9.03c15.54,-7.33 17.34,-7.51 29.81,-19.91 13.17,-13.1 19.42,-33.38 19.42,-52.7 0,-11.2 -5.54,-21.6 -11.59,-29.72 -5.16,-6.92 -16.17,-14.49 -24.81,-16.5 0.91,-0.79 0.23,-0.33 1.64,-1.16l6.05 -3.05c7.46,-3.68 21.36,-7.7 30.11,-7.7zm105.71 63.25l0 15.79c-0.61,14.63 -2.74,29.16 -5.2,40.43 -1.42,6.55 -4.26,18.6 -6.54,24.65 -0.14,0.38 -0.98,1.89 -1.3,2.47 -8.76,16.21 -14.32,34.73 -21.18,51.7 -1.62,4.02 -4.74,7.6 -7.08,11.13 -17.2,25.99 -36.33,51.25 -44.81,81.93 -1.31,4.74 -2.5,9.21 -3.96,14.25 -1.13,3.91 -1.5,7.14 -3.38,10.67 -1.47,2.77 -0.48,6.44 -1.81,10.04 -0.44,1.17 -2.5,4.65 -3.33,5.78 -6.3,8.46 -16.45,10.13 -26.54,8.1 -15.24,-3.06 -111.14,-17.32 -127.59,-18.02 -16.38,-0.69 -32.19,-3.56 -48.94,-4.97l-50.46 -4.14c-10.8,-0.15 -31.46,-2.84 -42.72,-2.79 -4.08,0.02 -4.75,-0.63 -8.36,-0.74 -29.98,-0.89 -150.34,-5.9 -177.24,-2.88 -8.54,0.96 -18.51,-0.03 -27.23,0.08 -3.89,0.05 -4.45,0.71 -8.34,0.75 -12.24,0.16 -23.62,0.02 -35.74,0.67l-69.2 3.61c-5.25,0.59 -11,1.03 -16.89,1.3l-33.62 2.8c-16.5,0.78 -33.36,2.72 -49.19,4.71 -2.87,0.36 -6.1,0.51 -8.33,0.77 -40.35,4.57 -80.69,8.91 -120.88,15.64 -8.11,1.35 -24.66,5.17 -32.14,3.93 -8.3,-1.37 -17.23,-8.92 -18.82,-17.6 -1.21,-6.66 1.23,-5.17 -1.12,-11.45l-4.72 -17.71c-5.52,-20.13 -14.9,-37.81 -26.33,-54.9l-32.78 -49.15c-7.32,-12.14 -6.45,-10.79 -11.16,-25.25l-8.23 -28.19c-4.37,-14.13 -8.14,-30.21 -8.99,-45.63 -0.31,-5.62 -0.59,-11.39 -0.72,-17.21l0 -11.88c0.32,-12.54 1.77,-25.05 5.69,-36.64 5.52,-16.36 5.33,-15.62 14.39,-31.12 1.48,-2.54 2.16,-3.22 3.81,-5.29 21.82,-27.39 54.71,-39.57 92.03,-32.02 13.97,2.83 28.82,7.08 40.49,14.12 1.88,1.14 10.06,5.54 11.6,5.9 -2.07,-3.9 -4.75,-5.98 -7.4,-9.4 -8.6,-11.07 -20.53,-19.87 -33.83,-24.29 -15.71,-5.22 -20.52,-28.3 -5.91,-34.48 5.52,-2.33 7.71,-1.88 13.4,-0.32 8.11,2.22 16.12,5.87 22.74,10.87 3.24,2.44 6.33,4.08 9.39,6.7 7.52,6.45 13.94,13.55 20.69,20.63 1.51,1.59 2.4,2.87 3.8,4.6 2.39,2.96 4.2,6.86 7.22,8.89 0,-21 -0.66,-38.55 6.2,-57.54 5.02,-13.89 17.01,-34.31 34.02,-22.62 5.63,3.87 11.25,12.19 8.38,23.02 -3.05,11.54 -13.6,8.95 -13.6,49.43 0,11.75 2.1,24.61 2.1,29.42l0.71 0c0,-8.35 3.76,-18.9 5.6,-25.91 3.13,-11.97 7.51,-23.74 12.59,-35.03 7.65,-17.02 16.74,-34.5 28.91,-48.82 1.54,-1.82 2.35,-2.57 3.9,-4.5 5.75,-7.17 12.52,-13.87 19.59,-19.61 11.01,-8.95 25.46,-18.58 39.22,-23.11 17.41,-5.73 35.68,-9.2 54.5,-6.72 12.1,1.6 25.46,4.63 36.59,9.63 3.51,1.58 7.2,3.3 10.81,5.29 12.81,7.08 34.35,22.22 44.3,34.12 1.54,1.85 1.71,2.39 3.52,4.18 3.52,3.46 6.92,9.67 10.68,12.43 -1.42,-6.1 -4.88,-12.16 -7.47,-17.74l-12.8 -24.32c-4.57,-7.59 -10.05,-14.69 -15.43,-21.68 -15.79,-20.5 -30.75,-21.66 -36.99,-25.32 -14.34,-8.43 -12.77,-33.35 5.42,-37.12 14.08,-2.93 44.49,18.67 54.27,31.33 2.1,2.73 3.78,3.82 5.91,6.7l28.79 45.43c0,-4.97 0.71,-4.02 -0.17,-8.9 -2.43,-13.45 -5.53,-27.1 -9.33,-40.42 -4.02,-14.09 -9.5,-29.46 -18.71,-40.82 -5.94,-7.32 -8.53,-8.88 -15.19,-14.21 -10,-7.99 -9.26,-26.84 1.78,-33.94 14.6,-9.39 29.09,7.14 37.97,17.28 1.95,2.23 2.53,3.22 4.25,5.56 1.52,2.07 2.69,3.37 4.09,5.7 2.35,3.89 5.55,8.58 7.12,12.49 1.51,3.75 5.37,10.06 5.69,13.92l1.4 0c1.64,-7.04 6,-14.54 9.33,-20.79 6.67,-12.51 16.31,-23.51 27.46,-32.06 2.16,-1.65 3.45,-2.54 6.17,-3.63 17,-6.8 30.57,12.69 22.41,29.42 -3.05,6.25 -5.39,6.34 -10.18,10.13 -3.48,2.75 -6.79,6.47 -9.49,10.11 -14.57,19.66 -27.5,65.88 -27.5,90.16l4.67 -7.94c9.28,-18.61 21.05,-35.63 35.76,-50.37 8.56,-8.57 33.72,-27.95 47.85,-25.16 14.85,2.93 18.61,20.04 11.82,30.93 -4.05,6.49 -8.54,6.73 -14.95,9.56 -6.53,2.87 -10.08,5.43 -15.15,9.35 -13.68,10.62 -29.52,33.71 -36.8,50.03 -2.54,5.69 -10.35,20.31 -10.79,25.62 2.85,-1.92 5.26,-5.98 7.48,-8.62 1.53,-1.82 1.76,-2.42 3.53,-4.17l5.86 -6.05c9.98,-9.56 20.09,-18.91 32.09,-26.03 3.15,-1.87 6.21,-3.88 9.61,-5.79 7.04,-3.95 14.61,-6.55 22.37,-9.14 33.57,-11.2 71.67,-6.17 100.5,12.04 3.38,2.13 5.93,3.87 9.25,6.16 9.18,6.32 16.95,14.25 24.76,22.15 13.53,13.68 28.73,38.86 36.37,56.76 6,14.04 18.07,44.72 18.39,59.33l1.4 0c0,-5.56 1.16,-9.78 1.41,-14.7 0.76,-15.1 0.93,-28.63 -3.66,-43.27 -1.07,-3.4 -3.07,-7.94 -5.15,-10.96 -5.62,-8.18 -8.22,-13.62 -3.13,-23.55 1.53,-2.98 4.47,-6.16 7.48,-7.92 26.55,-15.5 37.15,34.9 39.27,51.57 1.26,9.92 0.19,20.43 0.19,29.92l16.03 -19.67c10.14,-12.03 23.21,-21.59 37.17,-28.65 29.83,-15.09 37.58,7.94 30.26,20.47 -5.76,9.84 -10.88,8.99 -20.24,13.36 -3.46,1.62 -7.24,4.36 -10.23,6.58l-9.07 7.74c-3.6,3.15 -12.78,14.74 -15.22,18.38 2.46,-0.65 1.14,-0.45 3.13,-1.76 6.61,-4.37 13.52,-7.5 20.86,-10.65 4.33,-1.85 8.5,-3.84 13.1,-5.1 20.66,-5.67 41.26,-9.66 63.27,-3.05 23.23,6.97 38.34,19.12 51.82,39.2 5.01,7.45 8.66,15.79 11.55,24.87 3.03,9.57 4.91,20.21 6.19,30.22 0.43,3.41 0.72,6.94 0.89,10.53zm-988.46 -2.31c0,31.1 20.12,57.47 47.89,69.04 16.17,6.74 27.45,7.24 39.09,19.02 18.6,18.82 14.13,20 19.12,24.99 5.71,5.71 13.94,7.71 20.61,3.91 3.16,-1.8 5.59,-3.84 6.72,-7.99 4.24,-15.49 -16.24,-34.69 -26.15,-44.72l-7.87 -6.84c-5.62,-4.06 -11.73,-6.97 -18.71,-9.99l-21.3 -8.11c-5.89,-2.41 -13.77,-6.86 -17.28,-12.12 -19.93,-29.9 3.95,-44.7 13.18,-44.7 10.68,0 15.93,1.84 25.62,9.39 4.92,3.83 10.93,10.47 14.43,15.67 3.23,4.79 5.03,9.51 9.63,12.78 5.46,3.89 3.47,-1.16 10.93,11.47 1.14,1.93 1.55,3.09 2.69,5.02 1.03,1.75 1.89,3.04 2.92,4.78 1.19,2 1.27,2.67 2.18,4.82 5.86,13.81 9.89,18.84 15.05,37.47 3.31,11.93 3.41,11.12 5.86,24.25 5.38,28.8 5.16,64.5 -11.32,88.24 -5.09,7.33 -9.16,11.79 -16.68,16.23 -22.55,13.29 -48.9,6.62 -70.18,-4.84l-7.21 -3.99c-10.57,-6.06 -28.09,-21.05 -36.61,-29.91 -2.11,-2.19 -2.92,-3.69 -5.24,-5.96 -2.25,-2.21 -3.11,-3.72 -5.25,-5.96l-14.23 -18.67c-7.58,-12.51 -8.73,-13.03 -16.39,-27.74 -1.53,-2.94 -2.31,-3.75 -3.8,-7.4 -1.23,-2.99 -2.18,-4.53 -3.5,-7.7 -11.56,-27.85 -18.61,-51.6 -18.61,-83.64 0,-20.32 5.19,-40.41 13.3,-52.53 8.84,-13.23 22.44,-25.21 40.61,-25.21 20.81,0 25.05,1.79 42.25,9.56 2.14,0.97 2.71,0.66 3.95,2.35 -9.1,2.12 -18.9,10.42 -24.61,17.41 -5.81,7.11 -11.09,18.97 -11.09,31.62zm62.3 -83.35l0 0zm0 0l-0.7 -0.7 0.7 0.7zm247.82 14.01c0,12.32 1.99,28.17 9.57,37.35 2.5,3.03 3.95,4.6 6.69,7.31 16.75,16.59 49.02,24.06 68.66,8.09 20.31,-16.51 14.75,-39.44 -4.42,-39.44 -5.36,0 -10.29,2.47 -12.74,5.46 -3.43,4.19 -5.88,15.72 -25.74,2.92 -10.56,-6.8 -11.11,-25.29 2.29,-36.18 15.52,-12.6 39.34,-9.54 49.04,8.64 6.11,11.47 8.85,30.68 8.85,45.07 0,9.16 -1.92,18.4 -4.99,26.52 -1,2.67 -2.44,4.76 -3.64,7.57 -5.19,12.17 2.58,24.46 14.93,24.74l-0.7 15.41c-11.84,-13.63 -29.01,-23.4 -47.03,-27.88 -22.68,-5.65 -50.72,-2.6 -70.02,9.52 -2.17,1.36 -3.66,2.46 -5.88,3.92 -5.21,3.43 -11.67,9.6 -15.27,14.84 -2.83,4.12 -5.58,7.95 -7.61,12.7 -12.27,28.75 -9.9,48.44 7.61,74.03 1.59,2.32 2.26,2.53 3.96,4.44 7.2,8.1 14.87,14.37 24.8,19.32 18.21,9.07 39.66,10.63 57.61,-0.27 3.5,-2.12 6.71,-4.18 9.66,-7.14 5.3,-5.31 7.5,-11.64 3.9,-18.98 -3.12,-6.38 -11.18,-9.76 -18.39,-8.15 -10.15,2.26 -11.36,11.47 -25.49,10.67 -19.04,-1.07 -38.25,-23.72 -38.25,-36.6 0,-52.86 67.09,-59.68 93.37,-31.08 0.6,0.66 0.68,0.81 1.31,1.49 7.25,7.75 11.86,14.29 15.15,24.76 2.3,7.31 0.5,8.81 -1.76,15.6 -3.26,9.78 -6.52,20.16 -11.76,28.86 -6.98,11.57 -6.68,12.76 -15.11,24.8 -5.46,7.78 -11.8,15.48 -19.31,21.31 -18.08,14.06 -32.37,23.52 -58.4,23.52 -21.66,0 -47.84,-12.54 -62.84,-27.48 -1.16,-1.16 -1.89,-2.07 -3.17,-3.13 -1.7,-1.42 -2.26,-1.39 -3.8,-3.2l-12.1 -13.8c-11.44,-15.09 -21.45,-30.86 -28.78,-48.95 -6.91,-17.07 -8.31,-20.09 -13.52,-38.31 -4.93,-17.26 -7.99,-36.49 -9.55,-54.91 -0.67,-7.82 1.21,-4.81 1.49,-10.49 0.62,-12.42 -0.24,-22.72 4.86,-33.66 4.01,-8.6 11.27,-17.5 22.41,-17.5 6.6,0 14.44,2.5 18.51,5.3 9.86,6.77 14.89,20.9 12.91,33.12 -1.04,6.4 -4.93,11.01 -8.48,15.35 -3.89,4.74 -7.71,7.8 -11.34,12.47 -1.92,2.48 -3.47,3.84 -5.41,6.49 -1.6,2.17 -3.49,4.92 -4.77,7.13 -7.85,13.52 -21.89,69.32 9.08,69.32 5.73,0 10.66,-3.56 12.86,-7.45 3.15,-5.58 1.14,-11.21 1.14,-18.47 0,-12.04 4.64,-24.56 11.64,-32.48 0.09,-0.11 0.24,-0.26 0.33,-0.36 0.1,-0.11 0.25,-0.26 0.34,-0.36 6.23,-6.69 12.85,-12.94 17.93,-20.59 2.48,-3.72 4.28,-6.45 6.16,-10.65 3.32,-7.41 6.19,-17.52 5.03,-27.43 -2.16,-18.49 -7.59,-34.36 -20.25,-46.97 -14.71,-14.65 -37.68,-22.95 -59.28,-18.33 -3.47,0.74 -5.25,2.16 -8.1,2.4 0.89,-3.83 1.89,-6.54 2.95,-10.36 3.29,-11.89 8.12,-23.23 13.39,-34.22l7.24 -13.77c1.71,-3.07 3.37,-5.79 5.42,-8.59l11.81 -15.5c2.06,-2.45 4.64,-4.71 6.96,-7.03 5.16,-5.17 9.27,-8.35 15.51,-12.5 34.83,-23.2 73.13,-16.84 105.54,9.41 7.23,5.86 14.46,13.07 20.3,20.31 8.6,10.69 10.01,13.95 16.69,23.92 -21.76,0 -32.69,2.85 -48.42,15.29 -10.12,8 -21.58,24.91 -21.58,42.84zm283.51 -126.06c19.28,0 33.49,3.89 48.87,14.14l11.55 8.75c1.67,1.41 2.2,1.57 3.83,3.18l10.13 10.87c10.59,11.89 19.88,27.79 26.03,42.6l6.09 14.92c1.36,3.77 6.12,17.68 6.21,21.8 -2.68,-0.63 -3.99,-1.67 -7.41,-2.4 -12.92,-2.76 -29.36,0.23 -40.11,4.58 -10.9,4.41 -21.16,13.3 -27.18,23.24 -13.03,21.53 -17.12,48.06 -3.93,70.75l24.03 28.48c5.61,7.22 8.11,15.83 9.51,25.51 1.65,11.39 -0.41,8.25 -0.41,15.12 0,23.1 49.04,27.48 30.02,-37.75 -2.76,-9.47 -5.22,-15.29 -10.41,-22.49l-11.37 -13.14c-1.55,-1.56 -2.7,-2.58 -4.23,-4.17 -2.6,-2.71 -4.83,-5.98 -6.96,-9.15 -9.88,-14.64 -1.1,-38.12 13.93,-44.49 24.58,-10.42 39.72,12.4 40.83,34.53 0.24,4.87 -0.99,11.04 0.4,15.71 1.08,3.63 1.69,2.43 1.69,6.01 0,12.08 -2.64,25.17 -4.6,36.01 -5.75,31.7 -16.49,61.98 -33.07,89.48 -6.29,10.44 -13.69,20.3 -21.92,29.2l-15.47 14.63c-5.67,4.62 -11.46,8.82 -18.04,12.08 -12.58,6.23 -25.35,11.2 -42.01,11.2 -14.66,0 -31.84,-6.33 -40.89,-12.32 -10.99,-7.27 -13.89,-9.59 -21.92,-17.99l-17.92 -21.99 -9.8 -16.81c-3.79,-6.79 -15.17,-33.49 -15.17,-38.75 0,-13.1 10.59,-25.63 18.71,-33.8 14.14,-14.23 42.5,-19.5 62.3,-11.53 19,7.65 29.59,22.61 29.59,45.33 0,9.2 -10.74,21.45 -17.71,27.11 -9.35,7.59 -24.67,11.37 -35.23,3.44 -4.74,-3.56 -3.51,-4.76 -11.27,-6.27 -14.8,-2.89 -32.39,17.9 -3.67,34.53 35.38,20.48 76.26,-3.35 93.45,-35.34 11.06,-20.59 8.8,-41.96 -0.37,-62.68 -1.92,-4.33 -4.68,-8.35 -7.49,-12.12 -8.69,-11.67 -20.63,-19.95 -34.8,-25.41 -20.84,-8.05 -48.86,-7.31 -69.62,1.19 -1.73,0.71 -2.87,1.39 -4.79,2.22 -9.49,4.06 -18.46,10.41 -25.58,17.85 -4.48,4.69 -4.72,2.95 -4.72,-11.75 8.93,-0.2 16.8,-6.51 16.8,-15.41 0,-5.18 -1.04,-8.45 -3.27,-12.84 -10.46,-20.62 -9.33,-55.09 1.16,-75.41 2.46,-4.78 6.03,-8.29 10.39,-11.31 18.8,-13.02 49.12,0.39 49.12,21.12 0,5.24 -1.26,12.02 -5.08,15.22 -3.16,2.65 -9.04,6.13 -13.3,7.03 -16.94,3.57 -9.7,-13.14 -29.22,-13.14 -15.82,0 -23.05,20.93 -5.98,36.79 0.87,0.8 1.7,1.41 2.65,2.25 13.28,11.84 35.35,10.62 50.85,4.3 4.59,-1.88 9.27,-4.67 13.17,-7.84l11.22 -10.49c2.5,-2.94 3.51,-5.97 5.11,-9.58 7.17,-16.15 6.1,-36.91 -1.64,-52.33 -3.75,-7.47 -8.85,-12.87 -14.64,-18.27 -13.58,-12.63 -30.03,-16.97 -49.54,-16.97 2.81,-10.52 28.53,-37.46 36.18,-43.64 12.98,-10.48 34.02,-23.59 56.92,-23.59zm-112.7 17.51l0 0z"/>
   <path class="fil1" d="M10803.32 14250.89l-2.36 17.65c0.52,2.97 -6.2,158.77 -4.12,168.01 -5.05,1.63 -24.53,1.2 -30.13,0.09 -0.93,-0.71 -2,-1.29 -3.44,-2.58 -3.08,-2.75 -1.29,0.09 -2.63,-3.46 -1.34,-7.4 3.84,-173.58 -4.47,-184.13 -3.73,-4.74 -7.34,-7.49 -12.02,-5.06 -10.35,5.35 -15.44,11.46 -21.43,19.84 -11.27,15.8 -20.85,34.05 -31.23,52.06 -12.17,21.12 -3.61,7.87 -17.44,24.65 -20.97,25.43 -40.19,46.37 -74.33,50.09 -39.53,4.3 -115.48,-0.83 -151.9,-11.88 -4.17,-54.3 51.74,-37.85 80.01,-55.79 2.72,2.63 3.67,6.92 6.46,9.44 13.78,12.44 50.8,10.95 65.53,4.23 4.84,-2.2 14.7,-11.49 17.54,-14.39 22.12,-22.62 36.06,-47.61 51.05,-76.22 24.31,-46.4 14.63,-35.8 48.08,-79.19 6.97,-9.03 53.71,-66.8 57.67,-68.76 22.24,10.3 36.74,34.26 41.76,64.95 8.43,51.47 -12.15,68.08 -12.6,90.45z"/>
   <path class="fil1" d="M10613.56 14437.66c-53.75,4.81 -99.99,-3.34 -149,-20.34 -5.32,-1.85 -4.91,-0.78 -7.05,-6.04 -3.8,-9.35 -7.59,-19.16 -8.39,-29.59 63.25,8.26 66.25,15.36 139.76,11.31 33.76,-1.86 47.05,-9.43 65.77,-28.56 3.49,-3.56 6.17,-5.36 9.33,-9.39l17.03 -19.6c-3.63,5.95 -10.33,21.28 -13.52,28.73 -8.09,18.87 -14.86,49.85 -22.99,62.16 -6.32,9.6 -15.1,11.42 -30.94,11.32z"/>
   <path class="fil1" d="M10155.03 14201.26c55.15,-31.57 83.55,-42.48 160.4,-44.73 -51.02,-27.85 -137.88,15.94 -160.4,44.73zm9.87 -56.53l-11.91 9.57c24.34,-5.83 4.98,0.98 11.91,-9.57zm116.9 -5.33c-80.63,-15.39 -111.35,21.59 -111.92,22.1l-5.36 5.51c42.7,-15.21 64.37,-28.25 117.28,-27.61zm-116.9 5.33l47.35 -20.53c-15.67,1.01 -14.03,-0.96 -29.23,5.65l-18.12 14.88zm-113.57 -49.9c-18.59,6.99 -19.65,11.31 -28.87,25.8 10.7,-9.59 -0.67,-0.95 12.5,-8.65 20.99,-12.26 11.63,0.94 16.37,-17.15zm0 0c46.32,-6.19 24.54,-39.22 189.37,-39.33 -29.18,-13.13 -76.77,-14.58 -111.39,-4.53 -19.89,5.77 -69.41,23.48 -77.98,43.86zm9.85 -48.64c43.46,-17.11 53.01,-17.89 105.55,-19.96 -40.53,-19.25 -79.29,-2.04 -105.55,19.96zm342.34 -4.38c-24.18,13.28 5.27,27.32 -37.33,17.02 -10.64,-61.13 63.16,-56.37 56.76,-3.33 -5.45,45.08 -46.86,46.91 -93.22,51.57 16,8.17 35.27,13.49 51.8,21.08 53.46,24.53 106.11,71.82 169.93,51.13 32.44,-10.51 73.53,-43.84 55.08,-87 -15.73,-36.82 -96.85,-40.69 -93.56,13.94 8.98,4.42 49.83,2.18 28.31,32.79 -17.04,24.23 -40.65,7.61 -52.7,-7.9 -31.07,-66.28 139.3,-135.75 131.65,3.17 14.67,-10.84 35.97,-30.97 55.05,-35.35 32.02,-7.36 39.88,14.29 33.01,38.23 -20.47,6.08 -23.13,9.82 -35.74,-6.05 10.1,-22.36 2.21,-2.93 23.87,-14.94 -2.64,-2.73 9.8,-11.35 -18.15,-5.51 -8.61,1.8 -12.56,8.1 -17.82,13.54 -10.12,10.48 -16.74,18.57 -25.66,29.14 -16.32,19.36 -37.15,35.61 -61.9,47.71 -60.28,29.49 -127.03,13.92 -186,-5.62 24.83,124.37 -109.94,101.23 -71.81,26.65 55.48,-17.88 20.61,24.88 21.67,34.67l29.09 0.1c37.13,-108.87 -196.53,-154.81 -287.8,135.18 -4.64,-27.61 -4.69,-71.31 -21.98,-87.85 -24.15,-23.13 -49.38,8.17 -80.65,11.18 -10.16,-15.79 -4.34,-8.21 -4.46,-29.94 -5.66,-2.15 -22.13,3.31 -27.16,-22.75 -3.02,-15.62 -9.08,1.91 3.31,-17.07l-18.7 -8.11c-0.83,-0.4 -2.46,-1.12 -3.59,-1.85 30.22,-73.93 7.95,-39.33 13.29,-64.84 4.87,-23.26 2.76,13.67 2.22,-7.64 -0.35,-13.97 -1.99,-0.53 -3.2,-17.26 -1.18,-16.31 5.18,-25.13 1.59,-43.01 -11.16,-55.63 -117.7,-22.98 -85.97,25.43l11.46 -26.98c29.55,1.44 34.28,16.02 28.9,42.55 -94.64,45.85 -75.43,-127.03 46.19,-69.62 18.53,-48.18 38.8,-73.57 88.49,-90.2 44.99,-15.05 111.63,-15.94 159.68,-4.94 49.06,11.24 82.4,39.58 115.77,62.98 92.48,64.85 109.42,16.06 100.28,-0.3z"/>
   <path class="fil1" d="M11467.24 14202.4c-55.15,-31.57 -83.55,-42.48 -160.4,-44.73 51.02,-27.85 137.87,15.93 160.4,44.73zm-9.88 -56.53l11.92 9.57c-24.34,-5.83 -4.99,0.98 -11.92,-9.57zm-116.89 -5.34c80.63,-15.38 111.35,21.6 111.92,22.11l5.35 5.51c-42.69,-15.22 -64.36,-28.26 -117.27,-27.62zm116.89 5.34l-47.35 -20.53c15.68,1.01 14.04,-0.96 29.24,5.65l18.11 14.88zm113.58 -49.9c18.59,6.99 19.65,11.31 28.87,25.8 -10.7,-9.59 0.67,-0.95 -12.5,-8.65 -20.99,-12.26 -11.63,0.94 -16.37,-17.15zm0 0c-46.32,-6.19 -24.54,-39.22 -189.37,-39.33 29.18,-13.13 76.76,-14.58 111.38,-4.53 19.89,5.77 69.42,23.48 77.99,43.86zm-9.86 -48.64c-43.45,-17.11 -53,-17.89 -105.54,-19.96 40.53,-19.25 79.29,-2.04 105.54,19.96zm-342.33 -4.38c24.18,13.28 -5.27,27.32 37.33,17.02 10.64,-61.13 -63.17,-56.37 -56.76,-3.33 5.44,45.08 46.86,46.91 93.22,51.57 -16,8.16 -35.27,13.48 -51.8,21.07 -53.46,24.54 -106.11,71.83 -169.94,51.14 -32.43,-10.51 -73.52,-43.84 -55.07,-87 15.73,-36.82 96.85,-40.69 93.56,13.94 -8.98,4.42 -49.83,2.18 -28.31,32.79 17.03,24.23 40.65,7.61 52.7,-7.9 31.07,-66.28 -139.3,-135.75 -131.65,3.17 -14.67,-10.84 -35.97,-30.97 -55.05,-35.35 -32.02,-7.36 -39.88,14.29 -33.01,38.23 20.46,6.08 23.12,9.82 35.73,-6.05 -10.09,-22.36 -2.2,-2.93 -23.86,-14.94 2.64,-2.74 -9.8,-11.35 18.14,-5.51 8.62,1.8 12.57,8.1 17.83,13.54 10.12,10.48 16.74,18.57 25.66,29.14 16.32,19.36 37.15,35.61 61.89,47.71 60.29,29.49 127.04,13.91 186,-5.62 -24.82,124.37 109.95,101.22 71.82,26.64 -55.48,-17.87 -20.61,24.89 -21.67,34.68l-29.09 0.1c-37.13,-108.88 196.53,-154.81 287.8,135.18 4.63,-27.61 4.69,-71.31 21.98,-87.86 24.15,-23.12 49.38,8.18 80.65,11.19 10.16,-15.79 4.34,-8.21 4.45,-29.94 5.67,-2.15 22.14,3.31 27.17,-22.75 3.01,-15.62 9.08,1.9 -3.31,-17.07l18.7 -8.12c0.83,-0.39 2.46,-1.11 3.59,-1.84 -30.22,-73.93 -7.95,-39.33 -13.29,-64.84 -4.87,-23.26 -2.76,13.67 -2.23,-7.64 0.36,-13.97 2,-0.54 3.21,-17.26 1.18,-16.31 -5.18,-25.13 -1.59,-43.01 11.16,-55.64 117.7,-22.98 85.97,25.43l-11.46 -26.98c-29.55,1.44 -34.29,16.02 -28.9,42.55 94.64,45.84 75.43,-127.04 -46.19,-69.62 -18.53,-48.18 -38.8,-73.57 -88.49,-90.2 -44.99,-15.05 -111.63,-15.94 -159.68,-4.94 -49.07,11.24 -82.4,39.58 -115.77,62.98 -92.48,64.85 -109.42,16.06 -100.28,-0.3z"/>
   <path class="fil1" d="M10842.32 14250.89l2.36 17.65c-0.52,2.97 6.2,158.77 4.13,168.01 5.05,1.63 24.52,1.2 30.13,0.09 0.93,-0.71 1.99,-1.29 3.43,-2.58 3.09,-2.75 1.29,0.09 2.63,-3.46 1.35,-7.4 -3.84,-173.58 4.48,-184.13 3.73,-4.74 7.33,-7.49 12.02,-5.06 10.35,5.35 15.43,11.46 21.42,19.84 11.28,15.8 20.85,34.05 31.23,52.06 12.17,21.12 3.61,7.87 17.44,24.65 20.98,25.43 40.19,46.37 74.34,50.09 39.52,4.3 115.48,-0.83 151.89,-11.88 4.18,-54.3 -51.74,-37.85 -80.01,-55.79 -2.71,2.63 -3.66,6.92 -6.46,9.44 -13.78,12.44 -50.79,10.95 -65.53,4.23 -4.84,-2.2 -14.7,-11.49 -17.53,-14.39 -22.12,-22.62 -36.07,-47.61 -51.06,-76.22 -24.3,-46.4 -14.63,-35.8 -48.08,-79.19 -6.96,-9.03 -53.7,-66.8 -57.67,-68.76 -22.23,10.3 -36.73,34.26 -41.76,64.95 -8.42,51.47 12.15,68.08 12.6,90.45z"/>
   <path class="fil1" d="M11032.08 14437.66c53.75,4.81 99.99,-3.34 149,-20.34 5.33,-1.85 4.92,-0.78 7.06,-6.04 3.79,-9.35 7.59,-19.16 8.38,-29.59 -63.24,8.26 -66.25,15.36 -139.76,11.31 -33.76,-1.86 -47.04,-9.43 -65.77,-28.56 -3.49,-3.56 -6.17,-5.36 -9.33,-9.39l-17.03 -19.6c3.63,5.95 10.33,21.28 13.52,28.73 8.1,18.87 14.87,49.85 22.99,62.16 6.33,9.6 15.11,11.42 30.94,11.32z"/>
   <path class="fil1" d="M10397.78 13136.7c13.34,-26.03 64.13,-72.38 86.83,-98.11 10.47,-11.86 18.12,-23.3 29.11,-33.54 21.15,9.59 34.61,26.16 66.62,38.12 30.62,11.45 56.23,14.95 90.7,14.22 73.56,-1.55 105.81,-29.84 152.75,-57.82 49.82,30.95 81.92,55.9 152.78,57.92 33.32,0.95 62.37,-3.42 90.43,-14.54 38.74,-15.35 50.08,-30.85 66.08,-37.96l116.28 126.31c-9.77,28.81 -30.96,41.13 -57.35,129.33 -14.83,49.53 -18.14,113.63 -9.66,166.87 19.81,124.55 136.99,275.94 22.42,436.39 -74.91,104.92 -111.52,87.69 -253.57,113.56 -90.99,16.57 -92.54,37.88 -127.41,57.14 -43.18,-29.62 -61.16,-45.4 -127.22,-57.01 -42.71,-7.51 -117.86,-15.36 -154.41,-29.09 -74.23,-27.89 -139.69,-118.37 -149.41,-218.46 -17.21,-177.19 177.9,-305.78 5.03,-593.33zm87.71 1.06l20.27 0c4.55,14.24 12.19,24.38 22.76,30.4 13.81,8.08 36.27,12.04 67.26,12.04 19.83,0 82.68,-1.91 188.57,-6.02 64.03,-2.5 103.83,-3.82 119.69,-3.82 47.58,0 88.12,8.23 121.6,24.53 33.48,16.3 60.65,41.41 81.65,75.34 20.86,33.77 34.81,80.47 41.71,139.81 4.85,41.56 8.96,133.2 12.34,274.92 -55.96,35.24 -98.99,65.79 -129.09,91.64 -91.06,-25.26 -171.53,-37.89 -241.15,-37.89 -47.28,0 -91.19,5.73 -131.58,17.03 -40.53,11.31 -83.42,29.37 -128.65,54.34l-12.78 -16.3c59.04,-30.4 110.88,-61.53 155.53,-93.4 44.64,-31.87 74.02,-60.36 88.26,-85.62 14.25,-25.11 21.44,-56.98 21.44,-95.75 0,-14.1 -0.29,-34.96 -0.88,-62.42 -0.59,-19.24 -0.88,-39.21 -0.88,-59.92 0,-36.42 2.06,-63.29 6.02,-80.48 4.11,-17.33 12.63,-37.15 25.7,-59.47l-11.01 0c-34.81,20.11 -58.01,38.33 -69.47,54.77 -11.6,16.6 -17.33,37.6 -17.33,63.15l3.53 152.59c0,40.83 -12.19,77.25 -36.72,109.56 -24.38,32.31 -83.12,78.71 -176.08,139.51l-12.78 -17.18c47,-32.46 77.98,-59.18 92.96,-80.18 14.98,-20.86 22.47,-42.74 22.47,-65.5 0,-19.83 -6.31,-36.57 -19.09,-50.38 -12.63,-13.95 -26.73,-20.85 -42,-20.85 -7.78,0 -15.13,2.2 -21.74,6.46 -6.61,4.41 -15.56,13.37 -26.87,27.02l-13.66 -13.65c9.84,-24.82 23.06,-43.03 39.36,-54.49 16.45,-11.6 36.13,-17.33 59.04,-17.33 6.61,0 13.95,0.73 22.03,2.2 7.93,1.33 16.59,3.53 25.84,6.47 -0.59,-16.75 -0.88,-31.28 -0.88,-43.62 0,-45.09 9.11,-81.8 27.17,-110.15 18.06,-28.34 52.87,-57.86 104.12,-88.7 -47.43,4.85 -88.55,7.34 -123.06,7.34 -36.57,0 -67.85,-5.14 -93.99,-15.42 -19.68,-8.07 -34.08,-20.85 -43.18,-38.33 -9.25,-17.62 -14.69,-41.71 -16.45,-72.25zm348.94 118.96c-12.34,20.99 -20.56,39.21 -24.82,54.63 -5.73,21.29 -8.67,41.12 -8.67,59.47l3.53 169.77c0,21.74 -5.43,44.06 -16.16,66.68 -8.22,17.03 -23.79,37.59 -46.4,61.97 41.56,-6.9 73.43,-10.13 95.46,-9.84l24.37 0.44 0 -403.12 -27.31 0zm49.34 165.65c17.48,12.48 32.75,21 45.82,25.7 13.07,4.56 27.17,6.9 42.3,6.9 15.27,0 29.37,-2.34 42.59,-7.19 13.22,-4.7 28.64,-13.22 46.41,-25.41 -5.44,-64.76 -22.03,-108.53 -49.94,-131.29 -27.75,-22.91 -70.19,-34.36 -127.18,-34.36l0 165.65zm0 141.87c19.39,-11.16 35.98,-18.8 49.79,-22.91 13.66,-4.11 28.64,-6.17 44.94,-6.17 15.71,0 30.25,1.91 43.76,5.73 13.37,3.82 29.52,11.01 48.32,21.59l-6.9 -116.32c-18.21,11.16 -34.08,18.8 -47.44,22.91 -13.22,4.11 -27.76,6.17 -43.62,6.17 -15.12,0 -30.1,-2.49 -45.08,-7.34 -14.84,-4.85 -29.37,-12.04 -43.77,-21.74l0 118.08zm0 96.93c34.81,2.78 63.15,6.31 85.03,10.42 21.89,4.11 56.1,12.63 102.66,25.7 0.59,-43.32 0.88,-65.64 0.88,-67.11 0,-3.38 -0.29,-17.18 -0.88,-41.27 -18.21,-12.63 -34.36,-21.29 -48.17,-26.14 -13.95,-4.85 -28.93,-7.34 -45.23,-7.34 -16.6,0 -31.87,2.49 -46.12,7.34 -14.09,4.85 -30.1,13.51 -48.17,26.14l0 72.26z"/>
   <path class="fil2" d="M9909.61 14622.36c1.34,111.91 -36.8,206.77 -114.45,284.76 -77.65,77.82 -172.86,117.15 -285.61,117.82l-251.17 2.03 0 -804.16 249.14 0c111.41,0 205.94,38.82 283.59,116.3 77.65,77.65 117.15,172 118.5,283.25zm-136.73 1.01c-0.68,-74.1 -26.5,-136.56 -77.48,-187.54 -50.98,-50.8 -113.61,-76.3 -187.88,-76.3l-112.42 0 0 528.68 113.43 0c74.28,-0.67 137.07,-26.5 188.39,-77.31 51.32,-50.97 76.63,-113.43 75.96,-187.53z"/>
   <path class="fil2" d="M11489.13 14606.8l-160.48 337.21 -162.43 -337.21 103.95 0 59.13 138.39 59.12 -138.39 100.71 0zm305.04 172.94c0,8.55 -0.65,17.21 -1.95,25.88l-254.03 0c5.62,18.19 16.02,32.81 31.18,43.85 15.16,11.05 32.27,16.57 51.33,16.57 26.42,0 48.3,-10.18 65.62,-30.53l53.28 70.81c-33.36,31.62 -72.99,47.43 -118.9,47.43 -48.94,0 -90.2,-16.78 -123.77,-50.24 -33.57,-33.57 -50.36,-74.72 -50.36,-123.56 0,-48.4 16.9,-89.33 50.68,-122.9 33.78,-33.46 74.94,-50.25 123.45,-50.25 48.51,0 89.55,16.68 123.12,50.14 33.57,33.46 50.35,74.39 50.35,122.8zm-98.11 -39.74c-16.02,-30.33 -41.14,-45.48 -75.36,-45.48 -34.66,0 -59.99,15.15 -76.02,45.48l151.38 0zm343.38 104.38c0,20.79 -6.92,39.63 -20.79,56.64 -27.72,33.9 -67.14,50.13 -118.25,48.83 -20.35,-0.43 -42.56,-4.97 -66.59,-13.64 -24.04,-8.66 -43.64,-19.49 -58.81,-32.48l48.74 -63.03c23.39,22.09 48.29,33.14 74.71,33.14l1.95 0c10.83,0 20.58,-1.95 29.24,-5.85 11.26,-5.2 16.9,-12.56 16.9,-22.09l0 -2.6c-1.3,-9.96 -8.02,-17.1 -20.15,-21.44 -4.76,-0.87 -14.94,-2.82 -30.54,-5.84 -19.49,-3.9 -35.94,-8.67 -49.37,-14.3 -39.42,-16.89 -59.13,-46.57 -59.13,-89.01 0,-40.72 20.14,-71.25 60.43,-91.61 17.75,-9.1 37.03,-13.86 57.82,-14.3 21.65,-0.43 44.18,3.25 67.57,11.05 26.86,9.09 45.92,21.01 57.18,35.73l-58.48 52.63c-15.16,-15.59 -31.62,-23.39 -49.38,-23.39 -27.72,0 -41.58,9.1 -41.58,27.4l0 1.3c0,8.66 11.27,16.02 33.79,22.09 1.72,0.43 16.02,3.24 42.88,8.44 54.58,10.51 81.86,43.86 81.86,100.38l0 1.95zm181.61 112.63c-48.52,0 -89.67,-16.79 -123.45,-50.25 -33.79,-33.57 -50.68,-74.61 -50.68,-123.01l0 -340.67 87.72 0 0 176.72 86.41 0 0 74.72 -86.41 0 0 89.01c0,23.82 8.44,44.07 25.33,60.75 16.9,16.68 37.25,25.02 61.08,25.02l0 87.71zm147.16 -405.43c0,14.73 -4.99,27.18 -14.95,37.36 -9.96,10.17 -22.31,15.26 -37.04,15.26 -14.72,0 -27.17,-5.09 -37.35,-15.26 -10.18,-10.18 -15.27,-22.63 -15.27,-37.36 0,-14.73 5.09,-27.08 15.27,-37.04 10.18,-9.96 22.63,-14.94 37.35,-14.94 14.3,0 26.54,5.09 36.72,15.27 10.18,10.18 15.27,22.41 15.27,36.71zm-7.8 411.92l-87.72 0 0 -337.21 87.72 0 0 337.21z"/>
   <path class="fil2" d="M11210.56 15271.88c0,88.57 -36.29,156.84 -108.86,204.82 -41.83,27.68 -87.65,41.52 -137.47,41.52 -87.34,0 -155.61,-36.6 -204.82,-109.79 -28.29,-42.44 -42.44,-87.96 -42.44,-136.55 0,-31.98 6.15,-62.73 18.45,-92.26l115.33 46.13c-6.16,14.76 -9.23,30.14 -9.23,46.13 0,33.83 11.99,62.59 35.99,86.27 23.98,23.68 52.89,35.52 86.72,35.52 33.21,0 61.81,-12 85.8,-36.14 23.99,-24.14 35.98,-52.74 35.98,-86.11 0,-54.28 -25.52,-92.26 -76.42,-113.94 -15.37,3.69 -30.6,5.53 -45.97,5.53 -69.36,0 -127.79,-23.83 -175.3,-71.49 -47.51,-47.67 -71.35,-106.26 -71.35,-175.76 0,-68.89 23.84,-127.17 71.66,-174.84 47.82,-47.66 106.1,-71.5 174.68,-71.5l71.96 -170.68 98.56 41.82 -65.5 152.85c43.36,20.91 77.96,51.36 103.64,91.33 25.68,39.98 38.59,83.66 38.59,131.02 0,70.12 -25.52,129.16 -76.57,177.14 51.05,48.59 76.57,108.25 76.57,178.98zm-124.55 -356.12c0,-33.22 -11.99,-61.82 -35.98,-85.8 -23.99,-24 -52.59,-35.99 -85.8,-35.99 -33.83,0 -62.74,11.84 -86.72,35.52 -24,23.68 -35.99,52.44 -35.99,86.27 0,33.82 11.99,62.73 35.99,86.72 23.98,23.99 52.89,35.98 86.72,35.98 33.83,0 62.58,-11.99 86.26,-35.98 23.68,-23.99 35.52,-52.9 35.52,-86.72z"/>
   <path class="fil2" d="M10159.64 14713.73c-33.82,0 -62.73,11.83 -86.73,35.52 -23.98,23.68 -35.97,52.28 -35.97,86.11l0 232.96 -124.56 0 0 -232.96c0,-68.74 23.99,-126.86 71.96,-174.53 47.98,-47.51 106.41,-71.35 175.3,-71.35l0 124.25zm565.1 354.59l-132.39 0 -26.14 -71.97c-49.2,57.82 -111.95,86.73 -188.36,86.73 -68.89,0 -127.17,-23.99 -174.84,-71.96 -47.66,-47.98 -71.5,-106.1 -71.5,-174.38 0,-52.28 14.76,-99.49 44.29,-141.62 29.52,-42.13 68.88,-72.11 118.09,-89.95 28.91,-10.46 57.2,-15.69 84.88,-15.69 52.28,0 99.49,14.92 141.62,44.75 42.13,29.83 72.12,69.35 89.95,118.55l114.4 315.54zm-224.19 -232.04c0,-43.21 -17.53,-76.88 -52.58,-100.88 -20.3,-14.29 -43.68,-21.37 -70.12,-21.37 -43.06,0 -76.27,17.23 -99.65,51.82 -14.76,21.69 -22.14,45.06 -22.14,70.43 0,42.59 17.53,75.96 52.59,99.95 21.53,14.91 44.59,22.29 69.2,22.29 33.82,0 62.73,-11.84 86.72,-35.67 23.99,-23.68 35.98,-52.59 35.98,-86.57z"/>
  </g>
  <g id="_1598588342816">
   <g>
    <path class="fil3" d="M10423.24 13005.52l0 3.42c0,7.47 8.9,15.72 16.4,15.72l15.06 -0.66c3.64,-0.25 6.91,-0.4 10.8,-0.81l126.23 -10.44c6.87,-1.04 15.31,-0.7 21.66,-1.58 3.51,-0.48 7.16,0.07 10.71,-0.22l43.11 -1.99c4.09,-0.05 6.11,-0.74 10.91,-0.71 7.89,0.05 14.15,-0.65 22.57,-0.66 4.32,0 5.68,-0.74 10.21,-0.72 25.89,0.11 52.53,-1.35 79.28,-1.35l64.92 0c15.3,0 29.1,0.68 43.73,0.68l74.58 2.64c3.65,0.41 7.77,-0.21 11.42,0.2l31.72 1.76c3.71,0.51 7.58,-0.13 11.33,0.29 6.37,0.71 13.64,0.61 20.5,1.36l31.03 2.45c2.85,0.38 7.73,0.76 10.07,0.87l41.19 3.23c6.99,0.89 14.22,1.26 20.5,2.05 7.04,0.88 14.13,1.24 20.5,2.05l24.4 1.56c9.88,0 17.77,-8.05 17.77,-17.77 0,-15.66 -23.35,-13.98 -33.78,-15.43l-68.05 -6.43c-15.28,-0.85 -31.37,-3.54 -46.46,-3.42 -4.55,0.03 -6.79,-0.57 -11.62,-0.69l-12.18 -0.8c-14.9,-1.65 -30.76,-1.78 -46.57,-2.63 -21.74,-1.16 -50.1,-2.73 -71.75,-2.73 -8.97,0 -15.5,-0.69 -24.6,-0.69 -16.64,0 -32.01,-0.68 -49.2,-0.68l-54.66 0c-17.19,0 -32.56,0.68 -49.2,0.68 -15,0 -34.55,1.39 -49.2,1.37 -9.1,-0.01 -15.64,0.71 -24.6,0.68l-119.6 6.82c-8.91,0.22 -35.92,3.52 -46.47,4.1 -15.77,0.88 -31.12,2.71 -46.38,4.19l-22.83 2.45c-7.4,1.19 -13.45,6.03 -13.45,11.84z"/>
    <path class="fil3" d="M11094.26 12919.38c0,11.67 -1.04,18.99 -7.51,28.73 -2.13,3.2 -3.87,5.59 -6.67,8.36 -1.24,1.23 -2.48,2.72 -3.78,3.74 -2.54,1.99 -3.12,0.68 -3.91,3.61 14.6,0 53.81,5.07 70.36,6.17 4.56,0.31 9.22,0.94 14.26,1.46l41.11 4.67c4.15,0.46 10.44,1.72 13.86,1.89 5.69,0.29 7.52,-10.6 11.04,-19.37l8.6 -22.16c1.48,-3.74 2.74,-7.61 4.19,-11.53 0.62,-1.67 3.68,-8.09 3.67,-9.73 -0.02,-1.57 -0.44,-2.07 -1.53,-2.86 -1.86,-1.34 -33.82,-6.17 -35.93,-6.45 -13.69,-1.79 -26.14,-4.21 -39.43,-5.67l-60.32 -7.33c-6.99,-0.89 -14.18,-0.81 -20.31,-2.24 0.61,2.61 2.32,4.37 3.94,6.31 4.57,5.46 8.36,14.51 8.36,22.4z"/>
    <path class="fil3" d="M10622.09 12885.2c2.27,3.4 6.43,4.84 9.42,7.67 4.96,4.69 11.8,14.74 13.91,21.63 8.58,28.15 -7.47,40.05 -8.3,43.17 6.92,0 11.25,-0.68 17.79,-0.67 4.11,0.01 4.94,-0.68 8.83,-0.73 3.17,-0.04 6.47,0.14 9.62,0.05l36.19 -1.39c6.83,0.01 10.94,-0.69 17.77,-0.68l56.03 -0.69c-0.8,-3.02 -3.62,-2.68 -7.68,-7.35l-6.46 -8.58c-10.14,-17.15 -9.04,-38.53 2.72,-52.24 2.01,-2.33 4.3,-4.56 5.95,-7.02 -6.6,0 -13.21,0 -19.81,0l-68.37 2.69c-3.25,0.27 -6.93,-0.14 -10.22,0.04l-57.39 4.1z"/>
    <path class="fil3" d="M10397.28 12913.91c0,3.27 2.32,8.43 3.43,10.92 3.31,7.43 8.67,24.1 12.26,32.17 10.9,24.43 -1.61,19.77 37.03,15.81 9.31,-0.95 18.04,-1.76 26.66,-2.72l27.23 -2.83c14,-0.78 45.1,-4.13 55.33,-4.13 -1.2,-4.5 -28.67,-19.9 -18.76,-54.31 3.46,-12 8.85,-12.92 9.88,-16.78 -17.79,0 -121.39,14.91 -145.26,18.75 -2.52,0.4 -7.8,0.86 -7.8,3.12z"/>
    <path class="fil3" d="M10850.32 12953.56c24.82,0 49.28,0.61 73.82,1.35 3.49,0.1 4.2,0.72 8.15,0.73 13.38,0.02 25.72,1.32 36.95,1.32 5.3,0 18.57,1.39 27.31,1.39 -0.79,-2.94 -3.67,-3.32 -7.99,-12.53 -8.98,-19.16 -1.02,-39.48 13.27,-53.28 3.04,-2.94 7.71,-4.98 9.75,-8.02 -5.93,0 -13.22,-0.69 -18.55,-1.27l-38.87 -2.13c-4.23,0 -5.3,-0.72 -9.52,-0.73 -3.2,0 -7.14,0.25 -10.24,-0.01l-58.8 -2.01c-7.52,0 -12.38,-0.69 -19.82,-0.69 0.63,2.34 1.25,2.27 2.91,3.93 17.87,17.93 17,47.63 -0.67,65.31 -2.38,2.39 -6.22,4.43 -7.7,6.64z"/>
    <path class="fil3" d="M10816.15 12281.57c8.93,0 17.66,-6.52 22.03,-11.45 7.59,-8.55 10.09,-15.72 10.09,-28.2 0,-14.72 -6.33,-36.09 -12.53,-48.99l-20.27 -42.61 0 0c-0.16,0.66 -19.34,40.66 -22.64,49.81 -1.08,2.99 -1.78,6.01 -2.9,9.41 -4.88,14.89 -9.23,37.62 -2.03,51.08 4.55,8.48 15.85,20.95 28.25,20.95z"/>
    <path class="fil3" d="M10419.83 12434.02c0,17.56 2.36,32.17 15.3,42.11 6.52,5 17.44,7.4 25.69,2.32 4.16,-2.57 9.57,-12.16 9.57,-19.14 0,-14.07 -10.07,-29.24 -19.63,-39.15 -6.54,-6.77 -13.49,-15 -20.53,-21.16 -4.96,-4.36 -3.31,-4.37 -7.67,-6.68 0,14.57 -2.73,27.12 -2.73,41.7z"/>
    <path class="fil3" d="M11159.17 12454.53c0,8.98 2.02,18.84 9.16,23.65 12,8.1 28.38,-1.53 33.61,-9.58 13.13,-20.17 4.38,-56.22 4.38,-76.28 -2.39,1.6 -5.21,4.16 -7.34,6.32l-20.15 20.86c-6.97,7.88 -19.66,25.57 -19.66,35.03z"/>
    <path class="fil3" d="M10816.15 12941.26c21.7,0 36.6,-18.38 28.43,-37.33 -3.56,-8.27 -15.47,-15.99 -24.33,-15.99 -6.93,0 -10.88,-0.42 -17.55,2.95 -9.12,4.59 -16.55,14.61 -15.57,24.7 1.55,15.85 14.95,25.67 29.02,25.67z"/>
    <path class="fil3" d="M11010.21 12924.85c0,7.03 -0.61,8.33 2.95,14.83 1.67,3.06 3.09,4.47 5.71,6.59 19.88,16.1 50.79,0.69 50.79,-21.42 0,-28.61 -42.07,-33.46 -55.76,-10.67 -1.46,2.44 -3.69,7.2 -3.69,10.67z"/>
    <path class="fil3" d="M10563.32 12922.12c0,10.93 2.05,14.94 10.06,22.75 5.61,5.47 14.4,8.01 22.74,8.01 15.19,0 29.51,-12.9 26.69,-28.74 -3.25,-18.17 -29.51,-33.75 -50.33,-18.16 -3.68,2.76 -9.16,10.18 -9.16,16.14z"/>
   </g>
   <path class="fil4" d="M9969.61 13336.71c2.53,-31.16 21.75,-57.45 48.05,-64.26 -20.68,23.96 -11.68,23.71 -19.44,37.18 -2.61,4.53 -23,23.96 -28.61,27.08zm292.48 -79.07c5.67,-6.72 12.59,-9.86 20.49,-15.98 6.24,-4.83 13.2,-11.43 20.59,-14.59l2.62 27.59 -43.7 2.98zm-427.06 117.97c2.97,-32.16 1.98,-37.43 15.34,-74.97 9.07,-25.49 25.5,-49.88 42.44,-58.56 -23.85,30.76 -49.59,90.15 -29.45,123.46 2.53,-43.21 7.15,-81.82 44.93,-92.79 -12.41,21.45 -26.6,41.19 -21.71,74.65 5.34,-7.64 1.98,-2.53 4.02,-11.91 5.23,-24.01 20.35,-50.87 45.72,-57.58 -19.04,25.16 -24.81,27.65 -15.74,69.13 9.86,-17.61 1.81,-26.91 36.97,-50.59 -0.78,18.46 3.64,32.29 3.61,45.6 -10.85,7.16 -9.47,5.7 -20.37,10.43 -8.18,3.55 -10.12,6.35 -18.5,9.88 -12.93,5.44 -29.38,8.5 -41.07,17.91 -37.46,30.16 -45.44,138.5 -58.68,-12.42 -3.05,-34.81 -2.63,-58.19 14.64,-81.35 -2.71,14.79 -9.31,28 -9.82,47.75 -0.27,10.13 1.17,43.06 5.1,50.91l2.57 -9.55zm558.34 60.73l0 -4.07c-3.36,-5.98 -3.86,-10 -5.14,-18.32 -2.45,-16.01 -2.04,-8.56 -5.94,-19.65 -7.2,-20.48 8.99,-19.12 2.95,-38.42 -11.7,-37.41 -8.83,-50.5 -11.82,-88.44 -16,-15.55 -10.53,-17.6 -38.52,-15.69 5.66,-33.97 6.95,-42.46 -18.72,-59.82 -16.82,-1.3 -33.32,8.88 -51.59,10.77 -7.76,-31.7 -37.56,-25.76 -44.62,-60.15 -4.06,-19.76 -17,-79.66 -6.71,-95.8 16.95,-1.46 5.33,9.07 28,2.23 9.48,-2.85 20.43,-3.73 31.18,-4.62l9.76 12.27c8.82,-3.67 4.03,-4.1 11.97,-6.3 6.25,-1.73 12.81,-0.73 19.94,-1.22 2.1,-17.88 9.4,-30.56 10.19,-43.09 -16.76,-7.16 -23.02,-18.81 -39.3,-29.22 -14.19,-9.06 -32.3,-20.67 -38.99,-33.56 12.18,-6.48 13.05,-7.79 13.95,-24.72 -9.94,5.98 -14.1,10.51 -26.15,14.61 14.36,-35.18 56.16,-98.8 63.65,-130.51l-13.64 15.88c-11.73,18.16 -54.65,80.72 -66.97,92.37 -5.98,5.65 -10.25,4.1 -18.62,9.74 -5.98,-9.36 -9.69,-8.58 -21.52,-13.1 -13.25,-5.05 -12.89,-7.19 -20.06,-15.13 -12.9,16.06 -2.61,30.65 10.74,39.88 -24.41,7.49 -49.27,-15.28 -68.63,24.39 11.93,-4.48 16.47,-8.57 34.62,-7.15 -24.8,10.83 -26.14,3.91 -51.89,26.55 -9.01,7.92 -29.19,23.65 -41.48,11.73 -10.57,-10.25 7.13,-5.18 -7.24,-8.75 -12.26,29.84 18.36,25.46 39.52,20.53 -6.01,5.26 -12.57,8.49 -18.6,13.05 -8.05,6.08 -12.03,7.67 -16.64,17.13 15.59,-7.06 26.94,-15.96 47.66,-16.26 -18.53,11.18 -41.77,21.43 -59.89,34.62 -14.39,10.46 -38.89,32.4 -44.11,54.74 11.12,-7.36 17.98,-22.44 35.52,-34.84 13.53,-9.57 33.54,-15.76 52.84,-15.92 -23.18,12.78 -42.13,26.7 -49.39,52.83 19.83,-15.71 13.93,-22.66 47.69,-29.79 -16.72,19.23 -44.4,31.16 -52.84,66.66l-18.56 -3.63c0.5,0.44 1.25,0.53 1.52,1.59 0.27,1.03 1.11,1.31 1.48,1.69l12.81 10.8c6.75,3.24 16.76,0.91 23.68,-0.19 -8.58,10.64 -15.59,17.36 -9.07,37.52 11.27,-25.33 4.27,-27.82 37.16,-34.54 -0.79,19.44 -21.94,36.58 -19.5,75.7 -22.95,-15.92 -122.44,-127.57 -64.35,-174.36 -10.01,25.11 -15.36,53.98 1.31,76.72 -9.18,-31.22 -1.27,-40.9 7.31,-67.68 32.54,-101.59 -123.98,-46.57 -160.81,-29.12 16.88,-19.94 48.81,-29.15 81.43,-35.22 -37.59,-4.92 -105.54,19.41 -147.54,22.69 -41.37,3.23 -81.84,-6.48 -111.31,-34.26l-14.89 -11.81c5.89,22.26 30,46.81 44.5,56.68 22.19,15.13 50.78,20.43 82.28,19.99 -64.27,19.93 -211.26,-21.46 -269.15,-75.05 -9.36,-8.67 -16.82,-20.08 -27.61,-27.58 15.26,53.75 96.63,86.87 148.19,102.81 20.6,6.36 49.02,10.54 67.9,16.99 -47.13,-2.36 -97.59,-19.49 -138.32,-39.67 -16.53,-8.2 -26.62,-16.29 -41.32,-23.41 3.56,10.73 -1.9,1.17 5.75,10.46 6.66,8.1 14.03,11.61 22.56,18.49 30.65,24.7 81.81,38 121.53,43.21 -22.97,2.83 -43.57,-5.53 -64.66,-7.38l41.59 15.15c68.51,18.4 101.32,4.58 163.36,-0.49 -83.53,36.3 -235.31,17.78 -320.09,-10.55 -47.61,-15.91 -89.78,-33.52 -128.02,-57.17 -20.86,-12.9 -35.38,-23.2 -53.79,-38.69 -14.67,-12.33 -35.85,-37.46 -49.7,-46.55 12.9,36.71 45.24,54.72 72.4,75.46 89.51,68.36 216.04,111.17 335.35,113.78 -55.97,13.04 -162.43,-16.39 -209.55,-36.7 -29.82,-12.86 -54.98,-25.63 -82.26,-41.15 -13.5,-7.68 -25.27,-15.85 -37.87,-23.83 -11.82,-7.47 -27.52,-21.27 -38.81,-26.71 14.33,37.41 106.94,85.06 143.95,104.33 -17.37,-2.55 -33.71,-11.49 -48.38,-18.65 -17.73,-8.67 -29.74,-19.76 -46.41,-26.34 8.42,20.75 45.73,40.17 64.12,50.19 28.67,15.62 50.91,20.48 81.56,27.32 -31.24,7.22 -49.15,-9.46 -73.05,-14.76l9.54 8.2c4.73,3.02 5.33,2.75 10.08,5.27 62.85,33.37 120.97,37.35 193.19,31.66 54.9,-4.32 109.91,-14.43 159.93,-36.08 15.65,-6.77 31.25,-15.81 46.04,-21.59 -45.5,34.05 -167.02,84.07 -231.12,98.36 -44.89,10.01 -59.92,6.35 -100.79,-5.08l2.59 4.79c4.22,6.65 7.95,11.72 15.29,15.16 7.51,3.52 21.48,5.05 30.46,5.42 40.22,1.63 80.79,-8.61 117.97,-20.97 18.43,-6.12 36.28,-15.03 51.94,-20.09 -52.77,30.88 -104.46,56.35 -182.84,51.52l16.56 16.7c22.66,15.92 43.61,24.5 72.44,12.82 29.99,-12.14 55.11,-30.83 83.46,-46.06 -14.68,20.48 -48.04,37.04 -71.66,49.5 -8.1,4.28 -5.79,2.05 -11.54,8.07 66.39,-6.61 174.65,-114.79 189.4,-123.62 -21.84,33.73 -41.04,44.81 -58.32,91.64 -10.13,27.44 -21.82,51.17 -47.74,62.23 -9.14,3.9 -21.89,4.26 -29.09,11.68 15.83,5.5 32.3,13.97 53.58,12.19l29.24 -42.1c5.1,-8.68 21.13,-40.43 22.07,-46.99 -0.16,20.21 -20.4,63.76 -28.06,82.69 39.96,-23.2 38.27,-94.88 73.4,-122.87 -18.83,35.61 -23.53,42.97 -28.29,91.31 -1.55,15.65 -5.98,33.54 -14.29,44.35 -15.87,20.65 -24.31,13.63 -35.71,24.54 19.26,1.19 30.23,7.74 43.84,-3.68 30.53,-25.6 17.19,-78.88 46.64,-111.53 -15.26,39.04 -24.72,58.16 -21.14,104.6 1.72,22.25 2.24,39.35 6.4,61.17 3.43,17.99 9.43,36.81 12.28,53.41 -99.65,0.95 -58.73,48.56 -78.24,123.47 -8.18,31.4 -21.84,43.25 -36.73,63.51 -36.01,48.99 -20.22,23.49 -44.4,45.34 -8.05,7.27 -2.68,-0.26 -7.02,9.78 13.96,-6.03 22.46,-13.91 38.17,-18.88 -7.25,16.37 -16.95,30.24 -27.5,43.81 -7.23,9.31 -6.93,9.69 -17.17,18.77 -5.7,5.06 -14.7,13.78 -20.15,19.1 23.4,-5.5 36.18,-25.5 49.26,-39.52 -7.26,19.07 -19.51,34.38 -35.1,45.28 -6.91,4.83 -12.51,7.03 -17.4,13.35 45.25,-11.91 56.93,-48.75 83.02,-79.63 -2.66,22.14 -14.55,40.2 -29.28,53.79l-15.66 14.79c38.31,-11.61 64.34,-59.86 77.95,-95.37 -1.72,26.39 -15.45,47.86 -31.87,64.78 -8.12,8.38 -12.12,7.48 -15.22,21.53l7.14 -6.38c3.14,-2.81 1.97,-1.92 5.68,-4.9 3.94,-3.17 6.83,-5.34 11.13,-9.16 25.33,-22.47 34.86,-50.9 46.21,-83.93 1.53,29.34 -8.94,36.76 -12.44,57.37 2.72,-2.37 1.88,-1.38 4.57,-4.58 22.21,-26.47 30.5,-75.68 32.81,-108.44 4.17,32.35 -2.45,50.35 -9.46,78.75 8.97,-5.77 8.65,-8.8 12.22,-20.1 3.02,-9.55 4.6,-14.5 5.93,-24.81 5.11,-39.67 -11.35,-71.49 -12.44,-109.76 -0.74,-25.75 6.14,-28.76 25.76,-35.61 -5.78,27.57 -11.62,60.25 1.97,87.63 14.56,29.32 24.31,40.9 3.92,74.79 -5.38,8.94 -7.88,11.09 -15.16,18.1l-19.43 17.2c-0.38,18.97 12.81,44.55 15.8,67.06 3.05,22.86 3.85,61.77 6.78,78.37 -3.3,3.36 -5.69,1.35 -6.98,4.25 -3.24,7.25 7.89,-2.03 -3.68,6.31 18.02,4.6 -1.84,2.4 16.79,5.01 -5.94,41.06 23.54,37.73 54.42,34.73 -17.93,-36.72 -27.56,-25.51 -36.77,-66.25 -5.06,-22.34 -11.44,-69.68 -8.74,-93.18 1.87,-16.24 12.49,-19.95 22.72,-27.93 12.11,-9.43 16.88,-13.21 26.16,-25.62 14.01,-18.74 30.6,-36.19 34.23,-67.28 52.4,32.86 -33,77.76 -28.51,102.54 5.84,11.48 18.1,17.54 26.9,25.66 18.35,16.94 35.17,38.04 49.64,58.26 12.26,17.13 11.06,16.2 9.27,40.69l8.8 -2.63c3.31,0.38 5.44,2.01 8.68,4.1 -2.5,10.07 -5.23,14.04 -5.06,25.73 17.11,12.77 33.74,17.52 58.52,11.6 0.87,-20.81 -96.46,-112.05 -96.81,-150.54 -0.21,-24.6 27.2,-39.34 42.02,-50.8 9.06,-7 9.26,-8 17.33,-16.2 20.02,-20.33 20.76,-35.45 35.61,-57.28 5.75,-8.46 11.47,-9.39 13.87,-20.09 3.78,-16.8 -7.13,-35.7 -11.11,-50.53 -12.37,-46.19 45.43,-38.09 96.53,-89.73 18.18,-18.38 40.29,-48.48 55.56,-70.57 36.04,-52.11 21.35,-23.52 47.44,-34.38 8.6,-3.59 14.06,-7.9 22.28,-12.62 -1.05,17.42 -0.88,27.24 3.3,42.44l58.99 -51.28c4.61,-7.76 3.27,-19.57 9.56,-28.55 25.02,0.16 29.21,38.48 31.09,63.93 -9.61,7.22 -4.08,4.45 -5.46,7.3 -1.04,2.13 -3.77,1.76 -6.83,7.27 9.22,8.2 23.3,11.68 8.97,23.22 -3.12,2.52 -6.08,3.69 -8.53,7.38 -17.08,25.72 18.45,40.24 42.52,41.4z"/>
   <path class="fil4" d="M10489.16 12855.43l-124.9 136.95c-16.21,17.23 -33.32,26.63 -41.54,48.9 67.09,56.68 109.96,185.77 82.7,306.78 -24.6,109.18 -87.78,205.51 -67.39,329.84 18.09,110.3 89.91,198.05 171.08,233.24 70.91,30.74 242.71,15.29 302.05,105.19 28,-9.33 26.94,-39.84 118.26,-66.71 47.66,-14.03 105.07,-17.43 155.36,-26.79 92,-17.12 159.67,-100.2 191.66,-177.66 72.7,-176.02 -50.65,-308.5 -57.08,-451.99 -3.13,-69.79 9.27,-101.14 25.62,-159.99 9.22,-20.45 18.91,-37.95 29.94,-53.69 11.48,-16.37 23.69,-27.68 33.37,-42.85l-126.97 -139.59c-12.5,-14.76 -28.93,-29.57 -42.43,-43.5 -8.13,4 0.51,-1.86 -9.51,6.51 -2.47,2.06 -5.2,5.03 -7.87,7.77 -38.64,39.68 -91.86,53.68 -149.73,50.39 -93.58,-5.31 -131.48,-60.21 -160.16,-68.69 -29.36,36.88 -89.79,67.68 -158.27,68.96 -34.68,0.65 -67.67,-5.65 -95.89,-19.02 -57.96,-27.44 -41.93,-43.41 -68.3,-44.05zm-116.58 187.02c13.9,-26.72 66.8,-74.31 90.45,-100.72 10.9,-12.17 18.87,-23.92 30.32,-34.42 22.04,9.84 36.05,26.85 69.39,39.13 31.89,11.75 58.57,15.34 94.48,14.59 76.62,-1.59 110.22,-30.63 159.11,-59.35 51.9,31.77 85.33,57.38 159.14,59.45 34.7,0.97 64.97,-3.5 94.2,-14.92 40.34,-15.76 52.16,-31.67 68.82,-38.97l121.12 129.66c-10.17,29.58 -32.25,42.23 -59.74,132.76 -15.44,50.85 -18.88,116.66 -10.06,171.31 20.64,127.85 142.69,283.27 23.36,447.97 -78.03,107.71 -116.16,90.02 -264.13,116.58 -94.78,17.01 -96.39,38.89 -132.71,58.66 -44.98,-30.41 -63.71,-46.61 -132.52,-58.53 -44.48,-7.7 -122.77,-15.76 -160.83,-29.86 -77.33,-28.63 -145.51,-121.51 -155.64,-224.26 -17.92,-181.9 185.31,-313.9 5.24,-609.08z"/>
   <path class="fil4" d="M11663.94 13336.71c-2.52,-31.16 -21.75,-57.45 -48.05,-64.26 20.68,23.96 11.68,23.71 19.44,37.18 2.61,4.53 23,23.96 28.61,27.08zm-292.47 -79.07c-5.68,-6.72 -12.6,-9.86 -20.5,-15.98 -6.24,-4.83 -13.2,-11.43 -20.58,-14.59l-2.62 27.59 43.7 2.98zm427.05 117.97c-2.97,-32.16 -1.98,-37.43 -15.34,-74.97 -9.07,-25.49 -25.5,-49.88 -42.44,-58.56 23.85,30.76 49.59,90.15 29.46,123.46 -2.54,-43.21 -7.16,-81.82 -44.94,-92.79 12.42,21.45 26.6,41.19 21.71,74.65 -5.34,-7.64 -1.98,-2.53 -4.02,-11.91 -5.22,-24.01 -20.35,-50.87 -45.72,-57.58 19.04,25.16 24.81,27.65 15.74,69.13 -9.85,-17.61 -1.8,-26.91 -36.97,-50.59 0.79,18.46 -3.64,32.29 -3.6,45.6 10.84,7.16 9.46,5.7 20.36,10.43 8.18,3.55 10.12,6.35 18.51,9.88 12.92,5.44 29.38,8.5 41.06,17.91 37.46,30.16 45.44,138.5 58.68,-12.42 3.06,-34.81 2.63,-58.19 -14.64,-81.35 2.71,14.79 9.31,28 9.83,47.75 0.26,10.13 -1.18,43.06 -5.11,50.91l-2.57 -9.55zm-558.33 60.73l0 -4.07c3.36,-5.98 3.86,-10 5.13,-18.32 2.45,-16.01 2.05,-8.56 5.95,-19.65 7.2,-20.48 -8.99,-19.12 -2.96,-38.42 11.7,-37.41 8.84,-50.5 11.83,-88.44 15.99,-15.55 10.53,-17.6 38.52,-15.69 -5.66,-33.97 -6.95,-42.46 18.72,-59.82 16.81,-1.3 33.31,8.88 51.58,10.77 7.76,-31.7 37.56,-25.76 44.62,-60.15 4.06,-19.76 17.01,-79.66 6.71,-95.8 -16.94,-1.46 -5.32,9.07 -28,2.23 -9.47,-2.85 -20.43,-3.73 -31.17,-4.62l-9.76 12.27c-8.82,-3.67 -4.04,-4.1 -11.97,-6.3 -6.26,-1.73 -12.82,-0.73 -19.95,-1.22 -2.09,-17.88 -9.4,-30.56 -10.19,-43.09 16.76,-7.16 23.02,-18.81 39.31,-29.22 14.19,-9.06 32.29,-20.67 38.98,-33.56 -12.18,-6.48 -13.05,-7.79 -13.95,-24.72 9.95,5.98 14.1,10.51 26.15,14.61 -14.36,-35.18 -56.15,-98.8 -63.65,-130.51l13.64 15.88c11.74,18.16 54.65,80.72 66.97,92.37 5.98,5.65 10.25,4.1 18.62,9.74 5.98,-9.36 9.69,-8.58 21.52,-13.1 13.25,-5.05 12.9,-7.19 20.06,-15.13 12.9,16.06 2.62,30.65 -10.74,39.88 24.42,7.49 49.28,-15.28 68.64,24.39 -11.93,-4.48 -16.47,-8.57 -34.63,-7.15 24.81,10.83 26.14,3.91 51.89,26.55 9.01,7.92 29.19,23.65 41.48,11.73 10.57,-10.25 -7.13,-5.18 7.24,-8.75 12.26,29.84 -18.35,25.46 -39.52,20.53 6.01,5.26 12.57,8.49 18.6,13.05 8.05,6.08 12.04,7.67 16.64,17.13 -15.59,-7.06 -26.93,-15.96 -47.66,-16.26 18.53,11.18 41.77,21.43 59.9,34.62 14.38,10.46 38.89,32.4 44.1,54.74 -11.11,-7.36 -17.98,-22.44 -35.52,-34.84 -13.52,-9.57 -33.54,-15.76 -52.84,-15.92 23.18,12.78 42.13,26.7 49.39,52.83 -19.83,-15.71 -13.92,-22.66 -47.68,-29.79 16.71,19.23 44.39,31.16 52.83,66.66l18.56 -3.63c-0.5,0.44 -1.24,0.53 -1.52,1.59 -0.27,1.03 -1.11,1.31 -1.48,1.69l-12.8 10.8c-6.75,3.24 -16.76,0.91 -23.69,-0.19 8.58,10.64 15.59,17.36 9.07,37.52 -11.26,-25.33 -4.26,-27.82 -37.16,-34.54 0.79,19.44 21.94,36.58 19.51,75.7 22.94,-15.92 122.44,-127.57 64.34,-174.36 10.01,25.11 15.36,53.98 -1.3,76.72 9.17,-31.22 1.26,-40.9 -7.31,-67.68 -32.55,-101.59 123.97,-46.57 160.8,-29.12 -16.88,-19.94 -48.81,-29.15 -81.42,-35.22 37.59,-4.92 105.53,19.41 147.53,22.69 41.37,3.23 81.84,-6.48 111.31,-34.26l14.89 -11.81c-5.89,22.26 -30,46.81 -44.49,56.68 -22.19,15.13 -50.79,20.43 -82.28,19.99 64.26,19.93 211.25,-21.46 269.14,-75.05 9.36,-8.67 16.82,-20.08 27.62,-27.58 -15.27,53.75 -96.64,86.87 -148.2,102.81 -20.6,6.36 -49.01,10.54 -67.89,16.99 47.12,-2.36 97.59,-19.49 138.31,-39.67 16.53,-8.2 26.62,-16.29 41.32,-23.41 -3.56,10.73 1.91,1.17 -5.74,10.46 -6.67,8.1 -14.03,11.61 -22.57,18.49 -30.65,24.7 -81.81,38 -121.52,43.21 22.96,2.83 43.56,-5.53 64.65,-7.38l-41.59 15.15c-68.51,18.4 -101.31,4.58 -163.35,-0.49 83.53,36.3 235.3,17.78 320.08,-10.55 47.61,-15.91 89.79,-33.52 128.02,-57.17 20.86,-12.9 35.38,-23.2 53.8,-38.69 14.66,-12.33 35.84,-37.46 49.7,-46.55 -12.91,36.71 -45.25,54.72 -72.41,75.46 -89.5,68.36 -216.04,111.17 -335.35,113.78 55.97,13.04 162.44,-16.39 209.55,-36.7 29.82,-12.86 54.99,-25.63 82.27,-41.15 13.49,-7.68 25.27,-15.85 37.87,-23.83 11.81,-7.47 27.51,-21.27 38.8,-26.71 -14.33,37.41 -106.94,85.06 -143.94,104.33 17.36,-2.55 33.71,-11.49 48.38,-18.65 17.73,-8.67 29.73,-19.76 46.41,-26.34 -8.42,20.75 -45.74,40.17 -64.13,50.19 -28.67,15.62 -50.9,20.48 -81.55,27.32 31.23,7.22 49.15,-9.46 73.04,-14.76l-9.54 8.2c-4.73,3.02 -5.33,2.75 -10.07,5.27 -62.85,33.37 -120.98,37.35 -193.2,31.66 -54.9,-4.32 -109.9,-14.43 -159.93,-36.08 -15.65,-6.77 -31.25,-15.81 -46.04,-21.59 45.51,34.05 167.02,84.07 231.12,98.36 44.89,10.01 59.92,6.35 100.8,-5.08l-2.6 4.79c-4.22,6.65 -7.94,11.72 -15.29,15.16 -7.51,3.52 -21.47,5.05 -30.46,5.42 -40.21,1.63 -80.79,-8.61 -117.96,-20.97 -18.44,-6.12 -36.28,-15.03 -51.94,-20.09 52.76,30.88 104.45,56.35 182.83,51.52l-16.56 16.7c-22.66,15.92 -43.61,24.5 -72.44,12.82 -29.99,-12.14 -55.11,-30.83 -83.45,-46.06 14.68,20.48 48.03,37.04 71.65,49.5 8.11,4.28 5.79,2.05 11.55,8.07 -66.4,-6.61 -174.66,-114.79 -189.41,-123.62 21.85,33.73 41.05,44.81 58.33,91.64 10.12,27.44 21.81,51.17 47.73,62.23 9.15,3.9 21.89,4.26 29.09,11.68 -15.83,5.5 -32.3,13.97 -53.58,12.19l-29.24 -42.1c-5.1,-8.68 -21.12,-40.43 -22.06,-46.99 0.16,20.21 20.4,63.76 28.05,82.69 -39.96,-23.2 -38.27,-94.88 -73.39,-122.87 18.82,35.61 23.52,42.97 28.29,91.31 1.54,15.65 5.97,33.54 14.28,44.35 15.87,20.65 24.32,13.63 35.71,24.54 -19.25,1.19 -30.22,7.74 -43.84,-3.68 -30.53,-25.6 -17.18,-78.88 -46.64,-111.53 15.26,39.04 24.72,58.16 21.14,104.6 -1.72,22.25 -2.23,39.35 -6.4,61.17 -3.43,17.99 -9.43,36.81 -12.28,53.41 99.65,0.95 58.73,48.56 78.24,123.47 8.18,31.4 21.84,43.25 36.73,63.51 36.01,48.99 20.22,23.49 44.41,45.34 8.04,7.27 2.67,-0.26 7.01,9.78 -13.96,-6.03 -22.46,-13.91 -38.17,-18.88 7.25,16.37 16.95,30.24 27.5,43.81 7.24,9.31 6.94,9.69 17.17,18.77 5.7,5.06 14.7,13.78 20.16,19.1 -23.41,-5.5 -36.19,-25.5 -49.27,-39.52 7.26,19.07 19.51,34.38 35.1,45.28 6.91,4.83 12.52,7.03 17.4,13.35 -45.24,-11.91 -56.93,-48.75 -83.02,-79.63 2.67,22.14 14.56,40.2 29.28,53.79l15.66 14.79c-38.31,-11.61 -64.34,-59.86 -77.95,-95.37 1.72,26.39 15.45,47.86 31.87,64.78 8.12,8.38 12.12,7.48 15.22,21.53l-7.13 -6.38c-3.15,-2.81 -1.98,-1.92 -5.69,-4.9 -3.93,-3.17 -6.82,-5.34 -11.13,-9.16 -25.33,-22.47 -34.86,-50.9 -46.21,-83.93 -1.53,29.34 8.94,36.76 12.44,57.37 -2.72,-2.37 -1.88,-1.38 -4.56,-4.58 -22.22,-26.47 -30.51,-75.68 -32.81,-108.44 -4.18,32.35 2.44,50.35 9.46,78.75 -8.97,-5.77 -8.65,-8.8 -12.23,-20.1 -3.02,-9.55 -4.6,-14.5 -5.93,-24.81 -5.1,-39.67 11.35,-71.49 12.45,-109.76 0.73,-25.75 -6.15,-28.76 -25.77,-35.61 5.78,27.57 11.62,60.25 -1.97,87.63 -14.56,29.32 -24.31,40.9 -3.92,74.79 5.38,8.94 7.88,11.09 15.16,18.1l19.43 17.2c0.38,18.97 -12.8,44.55 -15.8,67.06 -3.04,22.86 -3.85,61.77 -6.77,78.37 3.29,3.36 5.68,1.35 6.97,4.25 3.24,7.25 -7.89,-2.03 3.68,6.31 -18.01,4.6 1.84,2.4 -16.79,5.01 5.94,41.06 -23.54,37.73 -54.41,34.73 17.92,-36.72 27.56,-25.51 36.77,-66.25 5.05,-22.34 11.43,-69.68 8.73,-93.18 -1.86,-16.24 -12.49,-19.95 -22.72,-27.93 -12.11,-9.43 -16.87,-13.21 -26.15,-25.62 -14.02,-18.74 -30.61,-36.19 -34.24,-67.28 -52.39,32.86 33,77.76 28.51,102.54 -5.84,11.48 -18.1,17.54 -26.9,25.66 -18.35,16.94 -35.17,38.04 -49.64,58.26 -12.25,17.13 -11.06,16.2 -9.27,40.69l-8.8 -2.63c-3.31,0.38 -5.44,2.01 -8.68,4.1 2.5,10.07 5.23,14.04 5.07,25.73 -17.12,12.77 -33.75,17.52 -58.52,11.6 -0.88,-20.81 96.46,-112.05 96.8,-150.54 0.22,-24.6 -27.19,-39.34 -42.02,-50.8 -9.06,-7 -9.25,-8 -17.33,-16.2 -20.02,-20.33 -20.75,-35.45 -35.6,-57.28 -5.76,-8.46 -11.47,-9.39 -13.88,-20.09 -3.77,-16.8 7.13,-35.7 11.11,-50.53 12.37,-46.19 -45.43,-38.09 -96.53,-89.73 -18.18,-18.38 -40.28,-48.48 -55.56,-70.57 -36.04,-52.11 -21.35,-23.52 -47.44,-34.38 -8.6,-3.59 -14.05,-7.9 -22.28,-12.62 1.05,17.42 0.89,27.24 -3.3,42.44l-58.99 -51.28c-4.61,-7.76 -3.27,-19.57 -9.56,-28.55 -25.02,0.16 -29.21,38.48 -31.09,63.93 9.61,7.22 4.09,4.45 5.47,7.3 1.03,2.13 3.76,1.76 6.83,7.27 -9.22,8.2 -23.31,11.68 -8.98,23.22 3.12,2.52 6.09,3.69 8.53,7.38 17.08,25.72 -18.45,40.24 -42.51,41.4z"/>
   <path class="fil4" d="M11191.94 12473.99c15.44,0 25.48,1.21 38.08,11.81l7.81 8.59c9.35,11.83 12.96,27.97 15.14,42.28 3.39,22.28 -1.39,49.2 -7.64,70.71 -7.45,25.6 -20.34,50.02 -35.62,71.69 -3.06,4.35 -5.81,7.72 -9.18,12.01 -9.61,12.24 -26.02,28.12 -38.27,36.22 -24.48,16.2 -55.94,30.29 -84.4,13.27 -29.69,-17.75 -33.35,-64.46 -27.66,-98.71 3.05,-18.32 9.2,-39.64 16.92,-56.22 0.88,-1.88 1.69,-3.31 2.52,-5 0.88,-1.79 1.33,-3.26 2.25,-5.26 1.58,-3.39 3.63,-5.94 5.26,-9.1l5.47 -9.57c2.04,-2.61 2.43,-0.73 6.36,-3.88 4.16,-3.33 5.62,-7.26 8.1,-11.05 6.52,-9.97 22.45,-25.41 34.05,-25.41 7.58,0 12.22,-0.17 19.32,6.65 6.04,5.8 6.64,8.95 6.64,17.28 0,17.39 -12.3,27.3 -26.74,32.72 -3.24,1.21 -5.61,2.12 -9.05,3.25 -21.63,7.08 -34.53,17.63 -48.47,34.91 -1.99,2.47 -3.67,4.48 -5.22,7.08 -2.65,4.43 -6.86,10.93 -6.86,17.74 0,8.78 8.77,14.87 17.26,13.22 12.16,-2.36 12.59,-10.23 16.25,-15.92 4.6,-7.18 17.03,-19.61 24.95,-22.89l23.31 -8.81c15.17,-7.15 16.93,-7.33 29.09,-19.43 12.86,-12.79 18.96,-32.59 18.96,-51.44 0,-10.94 -5.4,-21.09 -11.31,-29.02 -5.03,-6.75 -15.79,-14.14 -24.22,-16.1 0.89,-0.77 0.23,-0.32 1.6,-1.13l5.91 -2.98c7.28,-3.6 20.85,-7.51 29.39,-7.51zm103.18 61.73l0 15.41c-0.59,14.28 -2.67,28.47 -5.07,39.47 -1.39,6.39 -4.16,18.16 -6.38,24.06 -0.14,0.37 -0.97,1.84 -1.27,2.41 -8.56,15.82 -13.98,33.9 -20.68,50.46 -1.58,3.93 -4.63,7.42 -6.91,10.87 -16.79,25.37 -35.46,50.02 -43.74,79.97 -1.28,4.63 -2.44,9 -3.86,13.91 -1.11,3.82 -1.47,6.97 -3.3,10.42 -1.44,2.7 -0.47,6.29 -1.77,9.8 -0.43,1.13 -2.44,4.54 -3.25,5.63 -6.15,8.26 -16.06,9.9 -25.91,7.92 -14.87,-2.99 -108.48,-16.92 -124.54,-17.6 -15.99,-0.67 -31.41,-3.47 -47.77,-4.85l-49.25 -4.04c-10.55,-0.15 -30.71,-2.77 -41.7,-2.72 -3.98,0.02 -4.64,-0.61 -8.17,-0.72 -29.25,-0.87 -146.74,-5.76 -173,-2.81 -8.33,0.94 -18.06,-0.03 -26.57,0.07 -3.8,0.05 -4.35,0.69 -8.15,0.74 -11.94,0.15 -23.05,0.01 -34.88,0.65l-67.54 3.52c-5.14,0.58 -10.75,1 -16.5,1.28l-32.81 2.72c-16.1,0.77 -32.56,2.66 -48.01,4.6 -2.8,0.35 -5.96,0.51 -8.14,0.75 -39.38,4.47 -78.76,8.7 -117.99,15.27 -7.92,1.32 -24.07,5.05 -31.38,3.84 -8.09,-1.34 -16.81,-8.71 -18.36,-17.19 -1.18,-6.5 1.2,-5.04 -1.1,-11.17l-4.61 -17.29c-5.38,-19.65 -14.53,-36.9 -25.69,-53.59l-32 -47.97c-7.14,-11.85 -6.3,-10.53 -10.89,-24.65l-8.04 -27.51c-4.26,-13.8 -7.94,-29.49 -8.77,-44.54 -0.3,-5.49 -0.58,-11.12 -0.7,-16.8l0 -11.6c0.31,-12.24 1.73,-24.44 5.55,-35.76 5.39,-15.97 5.2,-15.25 14.04,-30.38 1.45,-2.47 2.12,-3.14 3.73,-5.16 21.3,-26.74 53.4,-38.63 89.83,-31.25 13.63,2.76 28.13,6.9 39.52,13.78 1.83,1.11 9.82,5.41 11.32,5.76 -2.01,-3.81 -4.63,-5.84 -7.23,-9.18 -8.39,-10.81 -20.03,-19.39 -33.01,-23.71 -15.34,-5.09 -20.03,-27.63 -5.77,-33.66 5.39,-2.27 7.53,-1.83 13.08,-0.31 7.91,2.17 15.73,5.73 22.19,10.61 3.16,2.39 6.18,3.98 9.17,6.55 7.34,6.28 13.61,13.22 20.19,20.13 1.48,1.55 2.35,2.8 3.72,4.49 2.33,2.89 4.1,6.7 7.04,8.67 0,-20.49 -0.64,-37.62 6.06,-56.16 4.89,-13.55 16.6,-33.48 33.2,-22.08 5.5,3.78 10.98,11.91 8.18,22.48 -2.97,11.25 -13.27,8.73 -13.27,48.24 0,11.47 2.05,24.02 2.05,28.71l0.68 0c0,-8.14 3.68,-18.44 5.47,-25.29 3.06,-11.68 7.34,-23.17 12.29,-34.19 7.47,-16.61 16.34,-33.67 28.22,-47.65 1.51,-1.77 2.29,-2.5 3.81,-4.39 5.61,-7 12.22,-13.54 19.13,-19.15 10.74,-8.73 24.85,-18.13 38.27,-22.55 17,-5.59 34.83,-8.98 53.21,-6.56 11.81,1.56 24.84,4.52 35.71,9.4 3.43,1.54 7.03,3.22 10.55,5.16 12.5,6.91 33.53,21.69 43.24,33.31 1.5,1.8 1.67,2.34 3.44,4.08 3.43,3.38 6.75,9.43 10.42,12.13 -1.38,-5.95 -4.76,-11.87 -7.29,-17.32l-12.49 -23.73c-4.47,-7.41 -9.82,-14.35 -15.06,-21.16 -15.41,-20.02 -30.02,-21.15 -36.11,-24.72 -14,-8.23 -12.47,-32.55 5.29,-36.24 13.74,-2.85 43.43,18.23 52.97,30.59 2.05,2.66 3.69,3.73 5.77,6.54l28.11 44.34c0,-4.85 0.69,-3.92 -0.17,-8.69 -2.38,-13.13 -5.4,-26.45 -9.11,-39.45 -3.93,-13.76 -9.27,-28.76 -18.26,-39.84 -5.8,-7.15 -8.33,-8.67 -14.83,-13.88 -9.76,-7.8 -9.03,-26.19 1.74,-33.12 14.25,-9.17 28.39,6.97 37.06,16.86 1.91,2.18 2.47,3.15 4.14,5.43 1.49,2.02 2.63,3.29 4.01,5.57 2.28,3.8 5.41,8.37 6.94,12.19 1.47,3.66 5.25,9.81 5.56,13.58l1.37 0c1.59,-6.87 5.85,-14.19 9.1,-20.29 6.51,-12.22 15.92,-22.95 26.81,-31.29 2.1,-1.61 3.36,-2.48 6.02,-3.55 16.59,-6.63 29.84,12.39 21.87,28.72 -2.97,6.1 -5.26,6.19 -9.94,9.89 -3.39,2.68 -6.63,6.31 -9.26,9.87 -14.22,19.18 -26.84,64.3 -26.84,88l4.56 -7.75c9.06,-18.16 20.54,-34.77 34.9,-49.16 8.36,-8.37 32.92,-27.28 46.71,-24.56 14.49,2.86 18.16,19.56 11.54,30.19 -3.95,6.33 -8.34,6.56 -14.6,9.32 -6.37,2.81 -9.84,5.3 -14.78,9.14 -13.36,10.36 -28.82,32.9 -35.93,48.83 -2.48,5.55 -10.1,19.82 -10.53,25 2.79,-1.87 5.13,-5.83 7.3,-8.41 1.49,-1.78 1.73,-2.36 3.45,-4.07l5.72 -5.9c9.74,-9.34 19.61,-18.46 31.32,-25.41 3.08,-1.82 6.06,-3.78 9.38,-5.65 6.87,-3.86 14.26,-6.39 21.84,-8.92 32.77,-10.94 69.95,-6.03 98.1,11.74 3.29,2.09 5.79,3.79 9.03,6.02 8.96,6.17 16.54,13.91 24.16,21.62 13.21,13.36 28.05,37.93 35.5,55.4 5.86,13.71 17.64,43.65 17.96,57.92l1.36 0c0,-5.43 1.13,-9.55 1.37,-14.35 0.75,-14.74 0.91,-27.94 -3.57,-42.23 -1.04,-3.33 -3,-7.75 -5.02,-10.7 -5.49,-7.99 -8.02,-13.29 -3.06,-22.99 1.49,-2.91 4.37,-6.02 7.3,-7.73 25.92,-15.13 36.26,34.06 38.34,50.33 1.23,9.69 0.18,19.95 0.18,29.21l15.65 -19.2c9.9,-11.74 22.65,-21.07 36.28,-27.97 29.11,-14.73 36.69,7.76 29.53,19.98 -5.62,9.61 -10.61,8.78 -19.75,13.05 -3.37,1.57 -7.06,4.25 -9.98,6.42l-8.86 7.55c-3.52,3.08 -12.48,14.39 -14.86,17.95 2.41,-0.64 1.12,-0.44 3.06,-1.73 6.45,-4.26 13.2,-7.31 20.37,-10.39 4.22,-1.81 8.29,-3.75 12.78,-4.98 20.16,-5.53 40.27,-9.42 61.76,-2.98 22.67,6.81 37.42,18.67 50.58,38.27 4.89,7.27 8.46,15.41 11.27,24.27 2.97,9.35 4.8,19.73 6.04,29.5 0.43,3.33 0.71,6.77 0.87,10.28zm-964.84 -2.26c0,30.36 19.64,56.1 46.75,67.4 15.79,6.57 26.79,7.06 38.15,18.56 18.16,18.37 13.8,19.53 18.67,24.4 5.58,5.56 13.6,7.52 20.11,3.81 3.09,-1.76 5.46,-3.75 6.57,-7.8 4.14,-15.12 -15.86,-33.86 -25.53,-43.65l-7.68 -6.67c-5.49,-3.97 -11.45,-6.81 -18.27,-9.76l-20.79 -7.91c-5.74,-2.35 -13.44,-6.7 -16.86,-11.84 -19.46,-29.17 3.85,-43.63 12.86,-43.63 10.42,0 15.56,1.8 25.01,9.17 4.8,3.74 10.67,10.22 14.09,15.3 3.15,4.67 4.91,9.28 9.39,12.47 5.33,3.8 3.39,-1.13 10.68,11.2 1.11,1.88 1.51,3.02 2.62,4.9 1.01,1.71 1.84,2.96 2.85,4.66 1.16,1.96 1.24,2.61 2.13,4.71 5.72,13.48 9.65,18.39 14.69,36.57 3.23,11.65 3.33,10.86 5.72,23.67 5.25,28.11 5.04,62.96 -11.05,86.13 -4.97,7.15 -8.94,11.52 -16.28,15.84 -22.01,12.98 -47.73,6.47 -68.51,-4.72l-7.03 -3.9c-10.32,-5.91 -27.42,-20.54 -35.74,-29.19 -2.06,-2.14 -2.85,-3.6 -5.12,-5.82 -2.19,-2.15 -3.03,-3.62 -5.12,-5.81l-13.89 -18.23c-7.4,-12.21 -8.52,-12.72 -15.99,-27.07 -1.5,-2.88 -2.26,-3.66 -3.72,-7.22 -1.2,-2.93 -2.13,-4.43 -3.41,-7.52 -11.29,-27.18 -18.16,-50.37 -18.16,-81.64 0,-19.84 5.06,-39.45 12.97,-51.28 8.63,-12.92 21.9,-24.6 39.64,-24.6 20.31,0 24.45,1.74 41.24,9.33 2.09,0.94 2.65,0.64 3.86,2.29 -8.88,2.07 -18.45,10.17 -24.02,16.99 -5.67,6.94 -10.83,18.52 -10.83,30.86zm60.82 -81.35l0 0zm0 0l-0.69 -0.68 0.69 0.68zm241.89 13.67c0,12.03 1.94,27.5 9.34,36.46 2.44,2.96 3.86,4.49 6.53,7.14 16.36,16.19 47.85,23.48 67.03,7.89 19.82,-16.11 14.4,-38.5 -4.32,-38.5 -5.23,0 -10.04,2.42 -12.43,5.34 -3.35,4.08 -5.74,15.34 -25.13,2.85 -10.31,-6.64 -10.84,-24.69 2.24,-35.32 15.14,-12.3 38.4,-9.31 47.86,8.44 5.97,11.19 8.64,29.94 8.64,43.99 0,8.94 -1.87,17.95 -4.87,25.89 -0.98,2.59 -2.38,4.64 -3.55,7.38 -5.07,11.88 2.51,23.88 14.57,24.15l-0.68 15.04c-11.56,-13.3 -28.32,-22.83 -45.91,-27.22 -22.14,-5.51 -49.5,-2.53 -68.34,9.3 -2.12,1.33 -3.57,2.4 -5.75,3.83 -5.08,3.35 -11.39,9.37 -14.9,14.48 -2.76,4.02 -5.45,7.76 -7.43,12.4 -11.97,28.06 -9.66,47.29 7.43,72.26 1.55,2.27 2.21,2.47 3.87,4.34 7.02,7.91 14.51,14.02 24.2,18.85 17.78,8.86 38.71,10.38 56.24,-0.26 3.41,-2.07 6.55,-4.08 9.43,-6.97 5.17,-5.18 7.31,-11.37 3.81,-18.52 -3.06,-6.23 -10.92,-9.54 -17.96,-7.97 -9.9,2.21 -11.09,11.2 -24.88,10.43 -18.59,-1.05 -37.34,-23.16 -37.34,-35.73 0,-51.6 65.49,-58.26 91.14,-30.34 0.59,0.64 0.66,0.79 1.28,1.45 7.08,7.57 11.58,13.95 14.79,24.17 2.25,7.14 0.49,8.6 -1.72,15.23 -3.18,9.55 -6.36,19.68 -11.48,28.17 -6.81,11.29 -6.51,12.46 -14.75,24.21 -5.33,7.59 -11.52,15.11 -18.84,20.8 -17.66,13.72 -31.6,22.95 -57,22.95 -21.15,0 -46.7,-12.24 -61.34,-26.82 -1.14,-1.13 -1.85,-2.02 -3.1,-3.05 -1.66,-1.39 -2.21,-1.36 -3.71,-3.13l-11.81 -13.47c-11.17,-14.72 -20.94,-30.12 -28.1,-47.78 -6.74,-16.66 -8.11,-19.61 -13.19,-37.39 -4.81,-16.85 -7.8,-35.62 -9.32,-53.59 -0.65,-7.64 1.17,-4.71 1.45,-10.25 0.61,-12.12 -0.23,-22.17 4.74,-32.85 3.92,-8.4 11.01,-17.08 21.88,-17.08 6.44,0 14.09,2.43 18.07,5.16 9.62,6.61 14.53,20.41 12.6,32.33 -1.02,6.25 -4.81,10.75 -8.28,14.99 -3.79,4.63 -7.53,7.61 -11.06,12.17 -1.89,2.42 -3.4,3.75 -5.29,6.34 -1.56,2.12 -3.4,4.8 -4.65,6.96 -7.66,13.19 -21.37,67.66 8.86,67.66 5.6,0 10.4,-3.47 12.55,-7.27 3.08,-5.45 1.11,-10.95 1.11,-18.03 0,-11.75 4.53,-23.97 11.36,-31.7 0.1,-0.11 0.24,-0.26 0.33,-0.36 0.1,-0.1 0.24,-0.24 0.34,-0.35 6.07,-6.53 12.54,-12.63 17.49,-20.09 2.42,-3.64 4.18,-6.3 6.01,-10.4 3.24,-7.24 6.04,-17.11 4.92,-26.77 -2.11,-18.06 -7.41,-33.54 -19.77,-45.86 -14.36,-14.29 -36.78,-22.4 -57.86,-17.88 -3.39,0.72 -5.13,2.1 -7.91,2.33 0.87,-3.73 1.84,-6.38 2.88,-10.11 3.21,-11.6 7.93,-22.67 13.07,-33.4l7.07 -13.44c1.66,-2.99 3.29,-5.65 5.28,-8.38l11.53 -15.13c2.01,-2.4 4.54,-4.6 6.8,-6.87 5.04,-5.04 9.05,-8.14 15.14,-12.2 34,-22.64 71.38,-16.44 103.01,9.19 7.06,5.72 14.12,12.76 19.82,19.83 8.39,10.43 9.77,13.61 16.29,23.34 -21.24,0 -31.91,2.79 -47.26,14.93 -9.88,7.81 -21.07,24.31 -21.07,41.81zm276.74 -123.05c18.81,0 32.69,3.8 47.7,13.81l11.28 8.54c1.63,1.37 2.14,1.53 3.73,3.1l9.89 10.62c10.34,11.6 19.41,27.12 25.41,41.58l5.94 14.55c1.33,3.69 5.98,17.27 6.07,21.28 -2.62,-0.61 -3.9,-1.62 -7.23,-2.33 -12.62,-2.7 -28.67,0.22 -39.16,4.47 -10.64,4.3 -20.65,12.98 -26.52,22.68 -12.72,21.02 -16.72,46.91 -3.85,69.06l23.46 27.8c5.48,7.05 7.91,15.45 9.28,24.9 1.62,11.12 -0.4,8.05 -0.4,14.76 0,22.54 47.87,26.83 29.31,-36.84 -2.7,-9.25 -5.1,-14.93 -10.17,-21.96l-11.1 -12.83c-1.5,-1.52 -2.63,-2.52 -4.12,-4.07 -2.55,-2.64 -4.71,-5.83 -6.8,-8.92 -9.65,-14.3 -1.07,-37.22 13.6,-43.44 24,-10.16 38.78,12.11 39.85,33.71 0.24,4.75 -0.96,10.77 0.4,15.33 1.05,3.54 1.65,2.37 1.65,5.87 0,11.79 -2.58,24.57 -4.5,35.15 -5.6,30.95 -16.09,60.5 -32.27,87.34 -6.14,10.19 -13.37,19.82 -21.4,28.5l-15.11 14.29c-5.52,4.5 -11.18,8.6 -17.6,11.78 -12.28,6.08 -24.75,10.93 -41,10.93 -14.32,0 -31.08,-6.17 -39.92,-12.02 -10.73,-7.09 -13.56,-9.36 -21.4,-17.56l-17.49 -21.46 -9.56 -16.42c-3.71,-6.62 -14.81,-32.68 -14.81,-37.81 0,-12.79 10.34,-25.02 18.26,-33 13.8,-13.89 41.48,-19.03 60.81,-11.25 18.55,7.46 28.89,22.07 28.89,44.25 0,8.97 -10.49,20.93 -17.29,26.45 -9.13,7.42 -24.08,11.11 -34.38,3.37 -4.64,-3.48 -3.43,-4.65 -11.01,-6.13 -14.45,-2.82 -31.62,17.47 -3.58,33.71 34.53,19.99 74.43,-3.27 91.21,-34.49 10.81,-20.1 8.59,-40.97 -0.36,-61.19 -1.87,-4.22 -4.56,-8.15 -7.31,-11.83 -8.48,-11.39 -20.14,-19.47 -33.96,-24.81 -20.35,-7.85 -47.69,-7.12 -67.96,1.17 -1.69,0.69 -2.8,1.36 -4.68,2.16 -9.26,3.97 -18.02,10.17 -24.97,17.43 -4.37,4.58 -4.61,2.88 -4.61,-11.47 8.73,-0.19 16.4,-6.36 16.4,-15.04 0,-5.06 -1.01,-8.25 -3.19,-12.53 -10.21,-20.13 -9.1,-53.78 1.13,-73.61 2.4,-4.67 5.89,-8.1 10.15,-11.05 18.35,-12.7 47.94,0.39 47.94,20.63 0,5.1 -1.23,11.73 -4.96,14.85 -3.08,2.59 -8.82,5.98 -12.98,6.86 -16.53,3.49 -9.46,-12.83 -28.52,-12.83 -15.44,0 -22.5,20.43 -5.83,35.92 0.84,0.78 1.65,1.37 2.58,2.2 12.96,11.55 34.51,10.36 49.63,4.19 4.48,-1.83 9.05,-4.56 12.86,-7.65l10.95 -10.24c2.44,-2.87 3.43,-5.83 4.99,-9.36 7,-15.76 5.95,-36.02 -1.6,-51.07 -3.66,-7.3 -8.64,-12.57 -14.29,-17.83 -13.26,-12.34 -29.31,-16.57 -48.36,-16.57 2.74,-10.27 27.85,-36.57 35.32,-42.6 12.67,-10.22 33.2,-23.03 55.56,-23.03zm-110.01 17.09l0 0z"/>
   <path class="fil4" d="M10796.3 14149.2l-2.31 17.23c0.51,2.9 -6.05,154.97 -4.02,164 -4.93,1.58 -23.94,1.16 -29.41,0.08 -0.91,-0.69 -1.95,-1.26 -3.35,-2.51 -3.02,-2.69 -1.26,0.08 -2.57,-3.38 -1.32,-7.22 3.75,-169.43 -4.37,-179.73 -3.64,-4.62 -7.16,-7.31 -11.73,-4.94 -10.11,5.22 -15.07,11.18 -20.92,19.37 -11,15.42 -20.35,33.23 -30.48,50.81 -11.88,20.62 -3.52,7.68 -17.03,24.06 -20.47,24.83 -39.22,45.27 -72.55,48.89 -38.58,4.2 -112.72,-0.8 -148.27,-11.59 -4.07,-53 50.51,-36.94 78.1,-54.46 2.65,2.57 3.58,6.76 6.3,9.22 13.45,12.14 49.59,10.68 63.97,4.13 4.72,-2.15 14.35,-11.22 17.12,-14.05 21.59,-22.08 35.2,-46.47 49.83,-74.4 23.72,-45.29 14.28,-34.95 46.93,-77.3 6.8,-8.82 52.42,-65.2 56.29,-67.11 21.71,10.05 35.86,33.44 40.77,63.4 8.22,50.24 -11.86,66.45 -12.3,88.28z"/>
   <path class="fil4" d="M10611.07 14331.51c-52.46,4.7 -97.6,-3.26 -145.43,-19.86 -5.2,-1.8 -4.81,-0.76 -6.89,-5.89 -3.71,-9.12 -7.41,-18.71 -8.19,-28.89 61.74,8.07 64.67,15 136.42,11.05 32.95,-1.82 45.92,-9.21 64.2,-27.88 3.41,-3.47 6.02,-5.23 9.11,-9.16l16.62 -19.14c-3.54,5.81 -10.08,20.78 -13.2,28.04 -7.9,18.42 -14.51,48.66 -22.43,60.68 -6.18,9.37 -14.75,11.15 -30.21,11.05z"/>
   <path class="fil4" d="M10163.5 14100.76c53.83,-30.81 81.55,-41.46 156.56,-43.66 -49.79,-27.19 -134.58,15.55 -156.56,43.66zm9.64 -55.18l-11.63 9.35c23.75,-5.7 4.86,0.95 11.63,-9.35zm114.1 -5.21c-78.71,-15.01 -108.69,21.08 -109.25,21.58l-5.23 5.38c41.68,-14.85 62.83,-27.58 114.48,-26.96zm-114.1 5.21l46.21 -20.03c-15.29,0.98 -13.69,-0.94 -28.54,5.5l-17.67 14.53zm-110.86 -48.7c-18.16,6.82 -19.19,11.03 -28.19,25.18 10.45,-9.36 -0.65,-0.93 12.21,-8.44 20.48,-11.97 11.35,0.91 15.98,-16.74zm0 0c45.21,-6.05 23.95,-38.29 184.84,-38.4 -28.48,-12.82 -74.93,-14.23 -108.72,-4.42 -19.42,5.64 -67.76,22.92 -76.12,42.82zm9.61 -47.48c42.42,-16.71 51.74,-17.46 103.03,-19.49 -39.56,-18.79 -77.4,-1.99 -103.03,19.49zm334.16 -4.28c-23.61,12.96 5.14,26.66 -36.44,16.61 -10.39,-59.67 61.66,-55.02 55.4,-3.25 -5.31,44.01 -45.74,45.79 -90.99,50.34 15.62,7.97 34.42,13.16 50.56,20.57 52.18,23.95 103.58,70.11 165.88,49.92 31.66,-10.26 71.76,-42.8 53.76,-84.93 -15.36,-35.94 -94.54,-39.71 -91.33,13.61 8.77,4.31 48.64,2.13 27.64,32.01 -16.63,23.65 -39.68,7.42 -51.45,-7.72 -30.32,-64.69 135.98,-132.5 128.51,3.1 14.32,-10.58 35.11,-30.23 53.74,-34.51 31.25,-7.18 38.92,13.95 32.22,37.32 -19.98,5.93 -22.58,9.59 -34.89,-5.91 9.86,-21.82 2.16,-2.86 23.3,-14.58 -2.58,-2.67 9.56,-11.08 -17.71,-5.37 -8.41,1.76 -12.26,7.9 -17.4,13.22 -9.88,10.22 -16.34,18.12 -25.04,28.44 -15.94,18.89 -36.27,34.76 -60.42,46.57 -58.85,28.78 -124.01,13.58 -181.56,-5.49 24.24,121.4 -107.31,98.81 -70.1,26.01 54.16,-17.45 20.12,24.29 21.15,33.84l28.4 0.1c36.24,-106.27 -191.83,-151.11 -280.92,131.96 -4.53,-26.96 -4.58,-69.61 -21.46,-85.76 -23.58,-22.58 -48.2,7.98 -78.72,10.92 -9.92,-15.42 -4.24,-8.02 -4.35,-29.23 -5.53,-2.1 -21.61,3.23 -26.52,-22.21 -2.94,-15.24 -8.86,1.86 3.24,-16.66l-18.26 -7.92c-0.81,-0.38 -2.4,-1.09 -3.5,-1.8 29.5,-72.16 7.76,-38.4 12.97,-63.29 4.75,-22.7 2.69,13.34 2.17,-7.46 -0.34,-13.63 -1.94,-0.52 -3.12,-16.85 -1.16,-15.92 5.05,-24.52 1.55,-41.98 -10.9,-54.3 -114.9,-22.43 -83.92,24.83l11.19 -26.34c28.84,1.4 33.46,15.63 28.21,41.53 -92.38,44.75 -73.63,-124 45.09,-67.95 18.08,-47.03 37.86,-71.82 86.37,-88.05 43.91,-14.69 108.96,-15.56 155.86,-4.82 47.89,10.97 80.43,38.63 113.01,61.47 90.27,63.31 106.8,15.67 97.88,-0.29z"/>
   <path class="fil4" d="M11444.35 14101.87c-53.83,-30.81 -81.55,-41.46 -156.56,-43.66 49.79,-27.19 134.57,15.55 156.56,43.66zm-9.64 -55.18l11.63 9.35c-23.76,-5.7 -4.86,0.95 -11.63,-9.35zm-114.1 -5.21c78.7,-15.01 108.69,21.08 109.25,21.58l5.22 5.38c-41.67,-14.85 -62.83,-27.58 -114.47,-26.96zm114.1 5.21l-46.22 -20.03c15.3,0.98 13.7,-0.94 28.54,5.51l17.68 14.52zm110.86 -48.7c18.15,6.82 19.18,11.03 28.19,25.18 -10.45,-9.36 0.65,-0.93 -12.21,-8.44 -20.48,-11.97 -11.35,0.91 -15.98,-16.74zm0 0c-45.21,-6.05 -23.95,-38.29 -184.84,-38.39 28.48,-12.83 74.93,-14.24 108.72,-4.43 19.42,5.64 67.76,22.93 76.12,42.82zm-9.62 -47.48c-42.42,-16.71 -51.73,-17.46 -103.02,-19.49 39.56,-18.79 77.4,-1.99 103.02,19.49zm-334.16 -4.28c23.61,12.96 -5.13,26.67 36.45,16.61 10.38,-59.67 -61.66,-55.02 -55.41,-3.25 5.32,44.01 45.74,45.79 90.99,50.34 -15.62,7.97 -34.42,13.16 -50.56,20.57 -52.18,23.95 -103.57,70.11 -165.87,49.92 -31.66,-10.26 -71.77,-42.79 -53.76,-84.92 15.36,-35.94 94.53,-39.72 91.33,13.6 -8.77,4.32 -48.65,2.13 -27.64,32.01 16.63,23.65 39.68,7.42 51.44,-7.72 30.33,-64.69 -135.97,-132.5 -128.5,3.1 -14.32,-10.58 -35.11,-30.23 -53.74,-34.51 -31.25,-7.18 -38.92,13.95 -32.22,37.32 19.98,5.93 22.57,9.59 34.88,-5.91 -9.85,-21.82 -2.15,-2.86 -23.29,-14.57 2.58,-2.68 -9.57,-11.09 17.71,-5.38 8.41,1.76 12.26,7.9 17.4,13.22 9.88,10.22 16.34,18.12 25.04,28.44 15.93,18.89 36.27,34.76 60.42,46.57 58.85,28.78 124,13.58 181.56,-5.49 -24.24,121.4 107.31,98.81 70.09,26.01 -54.15,-17.45 -20.11,24.29 -21.15,33.84l-28.39 0.1c-36.24,-106.27 191.83,-151.11 280.92,131.96 4.53,-26.96 4.58,-69.61 21.45,-85.76 23.58,-22.57 48.21,7.98 78.73,10.92 9.92,-15.42 4.24,-8.02 4.35,-29.23 5.52,-2.1 21.6,3.23 26.51,-22.21 2.95,-15.24 8.87,1.86 -3.23,-16.66l18.25 -7.92c0.82,-0.38 2.4,-1.09 3.51,-1.8 -29.5,-72.16 -7.76,-38.39 -12.97,-63.29 -4.76,-22.7 -2.7,13.35 -2.17,-7.46 0.34,-13.63 1.94,-0.52 3.12,-16.84 1.15,-15.93 -5.05,-24.53 -1.55,-41.99 10.89,-54.3 114.89,-22.43 83.92,24.83l-11.19 -26.34c-28.84,1.41 -33.46,15.63 -28.21,41.53 92.38,44.75 73.63,-124 -45.09,-67.95 -18.08,-47.03 -37.87,-71.82 -86.37,-88.04 -43.92,-14.7 -108.97,-15.57 -155.86,-4.83 -47.9,10.97 -80.44,38.63 -113.01,61.47 -90.27,63.31 -106.8,15.68 -97.89,-0.29z"/>
   <path class="fil4" d="M10834.36 14149.2l2.31 17.23c-0.51,2.9 6.05,154.97 4.03,164 4.93,1.58 23.93,1.16 29.41,0.08 0.9,-0.69 1.94,-1.26 3.35,-2.51 3.01,-2.69 1.26,0.08 2.56,-3.38 1.32,-7.22 -3.74,-169.43 4.38,-179.73 3.64,-4.62 7.15,-7.31 11.73,-4.94 10.1,5.22 15.06,11.18 20.91,19.37 11.01,15.42 20.35,33.23 30.49,50.81 11.87,20.62 3.52,7.68 17.02,24.06 20.47,24.83 39.23,45.27 72.56,48.89 38.58,4.2 112.72,-0.8 148.26,-11.59 4.07,-53 -50.5,-36.94 -78.1,-54.46 -2.65,2.57 -3.57,6.76 -6.3,9.22 -13.45,12.14 -49.59,10.68 -63.97,4.13 -4.72,-2.15 -14.34,-11.22 -17.11,-14.05 -21.59,-22.08 -35.21,-46.47 -49.84,-74.4 -23.72,-45.29 -14.28,-34.95 -46.93,-77.3 -6.8,-8.82 -52.42,-65.2 -56.29,-67.11 -21.7,10.05 -35.86,33.44 -40.76,63.4 -8.23,50.24 11.85,66.45 12.29,88.28z"/>
   <path class="fil4" d="M11019.59 14331.51c52.46,4.7 97.6,-3.26 145.44,-19.86 5.2,-1.8 4.8,-0.76 6.89,-5.89 3.7,-9.12 7.41,-18.71 8.18,-28.89 -61.73,8.07 -64.66,15 -136.42,11.05 -32.95,-1.82 -45.92,-9.21 -64.2,-27.88 -3.4,-3.47 -6.02,-5.23 -9.1,-9.16l-16.63 -19.14c3.54,5.81 10.08,20.78 13.2,28.04 7.9,18.42 14.51,48.66 22.44,60.68 6.17,9.37 14.74,11.15 30.2,11.05z"/>
   <path class="fil4" d="M10400.45 13061.64c13.02,-25.41 62.59,-70.66 84.75,-95.77 10.22,-11.57 17.69,-22.75 28.41,-32.73 20.65,9.35 33.78,25.53 65.03,37.21 29.89,11.17 54.89,14.59 88.54,13.87 71.8,-1.52 103.28,-29.12 149.1,-56.43 48.63,30.2 79.96,54.56 149.13,56.53 32.52,0.92 60.88,-3.33 88.27,-14.19 37.81,-14.98 48.88,-30.11 64.49,-37.05l113.51 123.29c-9.54,28.12 -30.22,40.14 -55.98,126.23 -14.47,48.35 -17.7,110.92 -9.44,162.89 19.35,121.57 133.72,269.35 21.89,425.96 -73.12,102.41 -108.85,85.6 -247.51,110.85 -88.81,16.17 -90.33,36.98 -124.36,55.78 -42.15,-28.92 -59.71,-44.32 -124.18,-55.66 -41.69,-7.32 -115.05,-14.99 -150.72,-28.39 -72.46,-27.22 -136.36,-115.54 -145.85,-213.24 -16.79,-172.96 173.66,-298.47 4.92,-579.15zm85.61 1.03l19.78 0c4.45,13.91 11.9,23.8 22.22,29.67 13.48,7.89 35.41,11.76 65.66,11.76 19.35,0 80.7,-1.87 184.06,-5.88 62.5,-2.44 101.35,-3.73 116.83,-3.73 46.45,0 86.01,8.03 118.69,23.94 32.69,15.92 59.21,40.43 79.7,73.54 20.36,32.97 33.98,78.56 40.72,136.47 4.73,40.57 8.74,130.02 12.04,268.35 -54.62,34.41 -96.62,64.22 -126.01,89.45 -88.87,-24.65 -167.43,-36.98 -235.38,-36.98 -46.16,0 -89.02,5.59 -128.44,16.63 -39.56,11.03 -81.42,28.67 -125.57,53.04l-12.48 -15.91c57.63,-29.68 108.23,-60.07 151.81,-91.18 43.58,-31.1 72.25,-58.91 86.16,-83.57 13.9,-24.51 20.92,-55.62 20.92,-93.46 0,-13.76 -0.28,-34.12 -0.85,-60.93 -0.58,-18.77 -0.86,-38.27 -0.86,-58.48 0,-35.55 2,-61.79 5.87,-78.56 4.02,-16.91 12.33,-36.27 25.09,-58.06l-10.75 0c-33.98,19.64 -56.63,37.42 -67.81,53.47 -11.32,16.2 -16.91,36.7 -16.91,61.64l3.44 148.94c0,39.86 -11.9,75.41 -35.84,106.94 -23.8,31.54 -81.14,76.84 -171.88,136.19l-12.47 -16.77c45.87,-31.69 76.12,-57.77 90.74,-78.27 14.62,-20.36 21.93,-41.72 21.93,-63.94 0,-19.35 -6.16,-35.69 -18.63,-49.17 -12.33,-13.61 -26.09,-20.35 -41,-20.35 -7.6,0 -14.76,2.15 -21.21,6.3 -6.46,4.3 -15.2,13.05 -26.24,26.38l-13.33 -13.33c9.61,-24.23 22.51,-42 38.42,-53.18 16.05,-11.33 35.26,-16.92 57.63,-16.92 6.45,0 13.61,0.72 21.5,2.15 7.74,1.29 16.2,3.44 25.23,6.31 -0.58,-16.34 -0.86,-30.53 -0.86,-42.58 0,-44.01 8.89,-79.84 26.52,-107.51 17.63,-27.67 51.6,-56.48 101.63,-86.58 -46.3,4.73 -86.44,7.16 -120.12,7.16 -35.7,0 -66.23,-5.01 -91.75,-15.05 -19.21,-7.88 -33.26,-20.35 -42.14,-37.41 -9.04,-17.2 -14.34,-40.71 -16.06,-70.53zm340.6 116.11c-12.04,20.5 -20.07,38.28 -24.23,53.33 -5.59,20.79 -8.45,40.14 -8.45,58.06l3.44 165.71c0,21.21 -5.31,43 -15.77,65.08 -8.03,16.63 -23.22,36.7 -45.3,60.49 40.57,-6.73 71.68,-9.89 93.18,-9.6l23.79 0.43 0 -393.5 -26.66 0zm48.17 161.7c17.05,12.19 31.96,20.5 44.72,25.09 12.76,4.44 26.52,6.74 41.29,6.74 14.91,0 28.67,-2.3 41.57,-7.03 12.9,-4.59 27.95,-12.9 45.3,-24.8 -5.31,-63.22 -21.51,-105.93 -48.74,-128.15 -27.09,-22.36 -68.52,-33.55 -124.14,-33.55l0 161.7zm0 138.48c18.92,-10.9 35.12,-18.35 48.59,-22.36 13.33,-4.02 27.96,-6.02 43.87,-6.02 15.34,0 29.53,1.86 42.72,5.59 13.04,3.72 28.81,10.75 47.16,21.07l-6.74 -113.54c-17.77,10.9 -33.26,18.35 -46.3,22.37 -12.9,4.01 -27.09,6.02 -42.58,6.02 -14.76,0 -29.38,-2.44 -44.01,-7.17 -14.47,-4.73 -28.67,-11.75 -42.71,-21.22l0 115.26zm0 94.61c33.97,2.72 61.64,6.16 83,10.18 21.36,4.01 54.76,12.33 100.2,25.08 0.57,-42.28 0.86,-64.07 0.86,-65.51 0,-3.29 -0.29,-16.77 -0.86,-40.28 -17.78,-12.33 -33.54,-20.78 -47.02,-25.51 -13.62,-4.74 -28.24,-7.17 -44.15,-7.17 -16.2,0 -31.11,2.43 -45.02,7.17 -13.76,4.73 -29.38,13.18 -47.01,25.51l0 70.53z"/>
  </g>
  <path class="fil5" d="M9890.9 14561.26c1.22,122.29 -33.29,225.95 -103.53,311.16 -70.25,85.03 -156.37,128.01 -258.37,128.75l-227.22 2.21 0 -878.7 225.39 0c100.78,0 186.29,42.42 256.54,127.08 70.23,84.85 105.96,187.95 107.19,309.5zm-123.69 1.11c-0.61,-80.97 -23.97,-149.22 -70.09,-204.92 -46.11,-55.52 -102.77,-83.37 -169.95,-83.37l-101.7 0 0 577.69 102.61 0c67.2,-0.74 123.99,-28.97 170.42,-84.48 46.41,-55.7 69.33,-123.95 68.71,-204.92z"/>
  <path class="fil5" d="M11451.16 14527l-166.58 350.04 -168.61 -350.04 107.91 0 61.37 143.66 61.38 -143.66 104.53 0zm316.65 179.52c0,8.88 -0.67,17.87 -2.02,26.86l-263.7 0c5.84,18.89 16.63,34.06 32.37,45.52 15.73,11.47 33.5,17.2 53.28,17.2 27.43,0 50.13,-10.56 68.12,-31.7l55.31 73.52c-34.63,32.82 -75.77,49.24 -123.43,49.24 -50.81,0 -93.64,-17.43 -128.48,-52.17 -34.85,-34.84 -52.27,-77.56 -52.27,-128.25 0,-50.25 17.54,-92.74 52.61,-127.58 35.07,-34.73 77.79,-52.16 128.14,-52.16 50.36,0 92.96,17.31 127.81,52.05 34.84,34.73 52.26,77.22 52.26,127.47zm-101.84 -41.26c-16.63,-31.47 -42.71,-47.21 -78.23,-47.21 -35.97,0 -62.27,15.74 -78.91,47.21l157.14 0zm356.46 108.37c0,21.57 -7.2,41.13 -21.59,58.78 -28.77,35.19 -69.69,52.04 -122.74,50.7 -21.14,-0.46 -44.18,-5.18 -69.13,-14.17 -24.96,-8.99 -45.3,-20.23 -61.04,-33.72l50.58 -65.42c24.28,22.93 50.13,34.4 77.56,34.4l2.03 0c11.24,0 21.36,-2.03 30.34,-6.08 11.69,-5.39 17.54,-13.03 17.54,-22.92l0 -2.7c-1.35,-10.35 -8.32,-17.76 -20.91,-22.26 -4.94,-0.89 -15.51,-2.92 -31.7,-6.07 -20.23,-4.05 -37.31,-8.99 -51.26,-14.84 -40.91,-17.53 -61.36,-48.33 -61.36,-92.4 0,-42.26 20.9,-73.96 62.72,-95.09 18.43,-9.44 38.44,-14.39 60.02,-14.84 22.48,-0.45 45.86,3.37 70.14,11.47 27.88,9.44 47.67,21.8 59.36,37.09l-60.71 54.63c-15.74,-16.19 -32.82,-24.28 -51.25,-24.28 -28.78,0 -43.17,9.45 -43.17,28.44l0 1.35c0,8.99 11.69,16.64 35.07,22.93 1.8,0.45 16.64,3.38 44.51,8.77 56.66,10.9 84.99,45.52 84.99,104.2l0 2.03zm188.5 116.89c-50.35,0 -93.07,-17.42 -128.14,-52.15 -35.07,-34.85 -52.61,-77.45 -52.61,-127.7l0 -353.63 91.05 0 0 183.45 89.7 0 0 77.56 -89.7 0 0 92.4c0,24.73 8.77,45.75 26.3,63.06 17.54,17.31 38.67,25.97 63.4,25.97l0 91.04zm152.77 -420.84c0,15.28 -5.18,28.21 -15.51,38.78 -10.34,10.56 -23.16,15.84 -38.45,15.84 -15.29,0 -28.21,-5.28 -38.78,-15.84 -10.57,-10.57 -15.85,-23.5 -15.85,-38.78 0,-15.3 5.28,-28.1 15.85,-38.45 10.57,-10.34 23.49,-15.51 38.78,-15.51 14.84,0 27.54,5.28 38.11,15.85 10.56,10.56 15.85,23.27 15.85,38.11zm-8.1 427.59l-91.05 0 0 -350.03 91.05 0 0 350.03z"/>
  <path class="fil5" d="M11199.51 15251.74c0,96.64 -39.6,171.13 -118.79,223.47 -45.64,30.21 -95.64,45.31 -150,45.31 -95.29,0 -169.79,-39.94 -223.48,-119.8 -30.87,-46.3 -46.3,-95.96 -46.3,-148.98 0,-34.9 6.7,-68.46 20.13,-100.67l125.83 50.34c-6.71,16.1 -10.06,32.88 -10.06,50.33 0,36.91 13.08,68.28 39.25,94.12 26.18,25.84 57.72,38.76 94.63,38.76 36.24,0 67.45,-13.09 93.62,-39.43 26.18,-26.34 39.27,-57.55 39.27,-93.96 0,-59.22 -27.86,-100.66 -83.39,-124.32 -16.78,4.03 -33.39,6.04 -50.17,6.04 -75.67,0 -139.42,-26.01 -191.27,-78.02 -51.84,-52.01 -77.84,-115.93 -77.84,-191.77 0,-75.16 26,-138.75 78.18,-190.76 52.18,-52.01 115.77,-78.02 190.59,-78.02l78.52 -186.23 107.55 45.63 -71.47 166.77c47.31,22.82 85.06,56.04 113.08,99.67 28.02,43.62 42.12,91.26 42.12,142.94 0,76.51 -27.86,140.93 -83.56,193.28 55.7,53.02 83.56,118.12 83.56,195.3zm-135.9 -388.58c0,-36.24 -13.09,-67.44 -39.27,-93.62 -26.17,-26.17 -57.38,-39.26 -93.62,-39.26 -36.91,0 -68.45,12.92 -94.63,38.76 -26.17,25.84 -39.25,57.21 -39.25,94.12 0,36.91 13.08,68.46 39.25,94.63 26.18,26.17 57.72,39.26 94.63,39.26 36.91,0 68.28,-13.09 94.13,-39.26 25.83,-26.17 38.76,-57.72 38.76,-94.63z"/>
  <path class="fil5" d="M10145.79 14649.88c-31.31,0 -58.06,10.95 -80.25,32.87 -22.2,21.91 -33.3,48.38 -33.3,79.68l0 215.57 -115.25 0 0 -215.57c0,-63.6 22.19,-117.39 66.59,-161.5 44.39,-43.97 98.46,-66.02 162.21,-66.02l0 114.97zm522.91 328.12l-122.51 0 -24.19 -66.59c-45.53,53.5 -103.59,80.25 -174.3,80.25 -63.75,0 -117.68,-22.19 -161.79,-66.59 -44.11,-44.39 -66.17,-98.18 -66.17,-161.36 0,-48.37 13.67,-92.06 40.98,-131.04 27.33,-39 63.75,-66.74 109.28,-83.24 26.75,-9.68 52.93,-14.52 78.55,-14.52 48.37,0 92.06,13.81 131.04,41.41 39,27.6 66.74,64.17 83.24,109.7l105.87 291.98zm-207.46 -214.71c0,-39.98 -16.22,-71.15 -48.66,-93.35 -18.78,-13.23 -40.41,-19.78 -64.88,-19.78 -39.85,0 -70.58,15.95 -92.21,47.96 -13.66,20.06 -20.49,41.69 -20.49,65.17 0,39.41 16.22,70.28 48.66,92.49 19.93,13.79 41.27,20.63 64.04,20.63 31.3,0 58.05,-10.96 80.25,-33.02 22.19,-21.91 33.29,-48.66 33.29,-80.1z"/>
 </g>
</svg>
